<?xml version="1.0" encoding="UTF-8" standalone="no" ?>
<!DOCTYPE svg PUBLIC "-//W3C//DTD SVG 1.1//EN" "http://www.w3.org/Graphics/SVG/1.1/DTD/svg11.dtd">
<svg xmlns="http://www.w3.org/2000/svg" xmlns:xlink="http://www.w3.org/1999/xlink" version="1.1" width="1080" height="1080" viewBox="0 0 1080 1080" xml:space="preserve">
<desc>Created with Fabric.js 5.2.4</desc>
<defs>
</defs>
<g transform="matrix(1 0 0 1 540 540)" id="66831ffa-8713-49ff-8bb4-5bfc4bb58b40"  >
<rect style="stroke: none; stroke-width: 1; stroke-dasharray: none; stroke-linecap: butt; stroke-dashoffset: 0; stroke-linejoin: miter; stroke-miterlimit: 4; fill: rgb(255,255,255); fill-rule: nonzero; opacity: 1; visibility: hidden;" vector-effect="non-scaling-stroke"  x="-540" y="-540" rx="0" ry="0" width="1080" height="1080" />
</g>
<g transform="matrix(1 0 0 1 540 540)" id="1f6dee5c-3510-4af1-9d52-81547798ae47"  >
</g>
<g transform="matrix(1 0 0 1 540 540)"  >
<g style="" vector-effect="non-scaling-stroke"   >
		<g transform="matrix(0.13 0 0 -0.13 0 0)"  >
<path style="stroke: none; stroke-width: 1; stroke-dasharray: none; stroke-linecap: butt; stroke-dashoffset: 0; stroke-linejoin: miter; stroke-miterlimit: 4; fill: rgb(236,0,0); fill-rule: nonzero; opacity: 1;" vector-effect="non-scaling-stroke"  transform=" translate(-1801.52, -1926.92)" d="M 1610 3365 C 1396 3322 1218 3228 1064 3075 C 922 2935 818 2744 774 2545 C 746 2420 750 2212 783 2089 C 834 1895 812 1933 1335 1130 C 1763 472 1761 475 1800 475 C 1839 475 1819 447 2206 1042 C 2290 1170 2436 1394 2531 1540 C 2764 1898 2811 2002 2841 2228 C 2870 2447 2803 2718 2671 2915 C 2472 3211 2146 3382 1785 3379 C 1725 3379 1646 3372 1610 3365 z M 1969 3064 C 2000 3056 2063 3031 2110 3008 C 2178 2975 2212 2950 2280 2881 C 2417 2744 2480 2594 2480 2405 C 2480 2210 2421 2071 2280 1930 C 2143 1793 2018 1734 1845 1723 C 1448 1699 1120 2007 1120 2405 C 1120 2570 1170 2707 1277 2831 C 1404 2980 1548 3060 1730 3083 C 1782 3090 1906 3080 1969 3064 z" stroke-linecap="round" />
</g>
		<g transform="matrix(0.13 0 0 -0.13 -0.2 -63.46)"  >
<path style="stroke: none; stroke-width: 1; stroke-dasharray: none; stroke-linecap: butt; stroke-dashoffset: 0; stroke-linejoin: miter; stroke-miterlimit: 4; fill: rgb(236,0,0); fill-rule: nonzero; opacity: 1;" vector-effect="non-scaling-stroke"  transform=" translate(-1800.03, -2402.88)" d="M 1699 3040 C 1565 3019 1411 2934 1320 2833 C 1257 2762 1195 2643 1174 2554 C 1152 2458 1159 2279 1190 2193 C 1250 2021 1420 1853 1594 1792 C 1691 1759 1830 1751 1934 1774 C 2175 1828 2370 2019 2426 2255 C 2448 2352 2441 2521 2411 2610 C 2347 2796 2143 2985 1960 3028 C 1893 3044 1763 3050 1699 3040 z M 1916 2876 C 2093 2838 2252 2666 2281 2479 C 2317 2247 2177 2017 1953 1939 C 1836 1899 1654 1919 1552 1984 C 1451 2048 1391 2120 1346 2233 C 1323 2291 1319 2316 1319 2404 C 1319 2559 1350 2634 1465 2751 C 1583 2870 1740 2914 1916 2876 z" stroke-linecap="round" />
</g>
</g>
</g>
</svg>