<?xml version="1.0" standalone="no"?>
<!DOCTYPE svg PUBLIC "-//W3C//DTD SVG 20010904//EN"
 "http://www.w3.org/TR/2001/REC-SVG-20010904/DTD/svg10.dtd">
<svg version="1.0" xmlns="http://www.w3.org/2000/svg"
 width="234.000000pt" height="218.000000pt" viewBox="0 0 234.000000 218.000000"
 preserveAspectRatio="xMidYMid meet">

<g transform="translate(0.000000,218.000000) scale(0.100000,-0.100000)"
fill="#000000" stroke="none">
<path d="M1050 1899 c-30 -4 -95 -20 -145 -35 -135 -39 -137 -39 -172 -10 -17
14 -39 26 -48 26 -21 0 -255 -168 -255 -183 0 -6 7 -30 16 -54 16 -42 16 -42
-19 -125 -87 -204 -113 -320 -104 -478 17 -296 198 -557 473 -680 97 -44 167
-60 289 -67 411 -22 763 256 841 665 31 164 4 324 -92 549 -27 62 -34 91 -29
111 4 15 8 43 8 62 2 33 -3 38 -112 117 -63 46 -122 83 -130 83 -8 0 -30 -12
-49 -27 -33 -24 -38 -25 -76 -15 -223 64 -304 76 -396 61z m225 -79 c44 -10
107 -28 139 -39 76 -27 88 -26 125 5 l31 26 68 -46 c119 -83 116 -79 102 -131
-12 -43 -11 -48 24 -126 89 -194 125 -364 106 -495 -28 -195 -101 -339 -238
-465 -82 -76 -174 -129 -286 -165 -70 -23 -99 -27 -211 -28 -148 -1 -215 13
-330 69 -151 73 -274 193 -345 340 -62 129 -74 183 -74 325 1 144 22 230 100
406 45 101 45 102 30 139 -9 20 -14 41 -11 45 7 11 172 130 180 130 4 0 20
-11 37 -25 36 -30 39 -30 119 -4 191 63 298 72 434 39z"/>
<path d="M1071 1730 c-162 -40 -217 -258 -94 -371 47 -44 87 -59 156 -59 56 0
71 4 113 33 84 55 120 153 93 250 -12 43 -68 111 -109 132 -35 18 -116 26
-159 15z m15 -52 c-41 -59 12 -121 75 -88 10 6 19 18 18 28 0 14 -3 13 -16 -5
-18 -27 -40 -29 -65 -6 -22 20 -23 41 -1 65 21 24 38 23 63 -4 22 -24 26 -18
10 13 -13 24 0 25 47 3 39 -19 78 -66 88 -106 8 -32 7 -33 -30 -14 -56 29
-106 -26 -71 -78 18 -28 62 -36 84 -14 19 19 26 1 12 -32 -12 -30 -82 -100
-99 -100 -5 0 -17 -3 -26 -7 -15 -5 -16 -3 -5 16 14 27 8 38 -10 16 -34 -41
-96 6 -71 54 14 25 53 28 71 6 7 -9 15 -13 18 -10 8 8 -29 45 -45 45 -7 0 -25
-7 -38 -16 -29 -19 -32 -53 -8 -90 l16 -25 -29 7 c-39 9 -91 49 -109 84 -17
33 -19 60 -5 60 6 0 10 -4 10 -10 0 -15 60 -12 76 4 17 18 18 68 2 84 -14 14
-78 16 -78 2 0 -5 -4 -10 -10 -10 -21 0 -9 47 22 84 44 54 139 94 104 44z
m-48 -130 c32 -32 -4 -87 -48 -73 -25 8 -37 50 -20 70 15 18 51 20 68 3z m248
-2 c18 -19 18 -35 -3 -58 -21 -24 -45 -23 -68 2 -40 44 29 98 71 56z"/>
<path d="M664 1249 c-41 -12 -90 -68 -103 -116 -29 -109 62 -213 176 -200 52
6 88 29 121 78 20 28 23 44 20 90 -5 68 -35 114 -92 140 -45 20 -74 22 -122 8z
m125 -83 c12 -13 25 -42 28 -65 5 -36 2 -44 -30 -76 -37 -37 -70 -44 -110 -24
-62 32 -77 112 -30 161 36 38 108 40 142 4z"/>
<path d="M1484 1249 c-48 -14 -101 -79 -109 -132 -9 -58 19 -124 66 -158 46
-32 144 -34 185 -3 53 39 69 70 69 137 0 75 -27 120 -89 148 -45 20 -74 22
-122 8z m123 -83 c23 -20 28 -32 28 -71 0 -40 -5 -51 -33 -76 -97 -87 -227 54
-135 146 35 34 100 35 140 1z"/>
<path d="M1050 884 c-57 -25 -96 -60 -119 -108 -25 -54 -28 -137 -7 -188 21
-50 86 -104 150 -124 47 -15 61 -16 98 -5 96 28 161 100 174 192 10 70 -11
127 -65 179 -68 67 -155 87 -231 54z m40 -32 c0 -4 -5 -13 -11 -19 -20 -20 -6
-67 25 -82 34 -16 76 -2 76 26 -1 17 -1 17 -14 1 -24 -32 -86 -17 -86 19 0 15
35 53 50 53 5 0 18 -10 30 -22 11 -12 20 -17 20 -10 0 6 -4 14 -10 17 -14 9
-12 25 3 25 47 0 137 -87 137 -132 0 -18 -2 -18 -31 -2 -53 27 -98 -10 -84
-69 4 -14 16 -27 27 -30 20 -6 20 -5 -1 17 -28 30 -27 54 4 68 20 9 31 8 50
-2 32 -17 32 -43 -1 -69 -30 -23 -27 -26 10 -11 18 6 26 6 26 -1 0 -31 -58
-102 -103 -125 -30 -16 -57 -10 -38 9 6 6 11 18 10 27 0 11 -4 9 -16 -7 -19
-28 -59 -30 -73 -4 -15 28 -13 38 12 61 12 11 17 20 11 20 -35 0 -53 -53 -32
-92 6 -11 8 -22 5 -25 -10 -11 -91 43 -113 76 -28 42 -31 77 -5 66 37 -16 60
-16 75 0 44 44 -4 122 -59 96 -33 -15 -34 -14 -34 8 0 24 44 78 85 102 32 20
55 24 55 11z m-52 -144 c36 -36 -11 -93 -57 -69 -39 21 -21 81 24 81 12 0 26
-5 33 -12z"/>
<path d="M1157 586 c10 -13 20 -20 21 -15 5 12 -17 39 -30 39 -5 0 -1 -11 9
-24z"/>
</g>
</svg>
