<?xml version="1.0" standalone="no"?>
<!DOCTYPE svg PUBLIC "-//W3C//DTD SVG 20010904//EN"
 "http://www.w3.org/TR/2001/REC-SVG-20010904/DTD/svg10.dtd">
<svg version="1.0" xmlns="http://www.w3.org/2000/svg"
 width="264.000000pt" height="254.000000pt" viewBox="0 0 264.000000 254.000000"
 preserveAspectRatio="xMidYMid meet">

<g transform="translate(0.000000,254.000000) scale(0.100000,-0.100000)"
fill="#000000" stroke="none">
<path d="M730 2083 c-62 -71 -114 -153 -148 -235 -97 -233 -78 -506 50 -722
77 -130 253 -287 366 -327 47 -16 39 -26 -27 -34 -296 -34 -331 -448 -45 -531
44 -12 115 -14 426 -12 356 3 375 4 419 24 55 26 108 77 135 130 26 53 27 184
1 236 -44 87 -135 148 -228 151 -27 1 -49 7 -49 12 0 6 22 20 49 32 126 58
274 192 343 309 85 146 124 300 115 458 -10 198 -69 343 -204 504 l-45 52
-558 0 -558 0 -42 -47z m1180 -75 c233 -288 219 -704 -32 -974 -250 -267 -637
-320 -943 -129 -278 173 -411 504 -330 820 22 85 86 210 145 283 l51 62 529 0
529 0 51 -62z m-131 -1341 c50 -33 91 -110 91 -173 0 -63 -45 -143 -100 -176
l-45 -28 -392 0 c-281 -1 -399 3 -415 11 -86 44 -127 108 -128 195 0 70 33
130 95 172 l48 33 402 -3 401 -3 43 -28z"/>
<path d="M1049 1985 c-61 -33 -68 -134 -13 -186 39 -36 112 -34 152 4 77 74
29 198 -75 197 -21 -1 -50 -7 -64 -15z m106 -50 c46 -45 19 -115 -44 -115 -33
0 -71 39 -71 72 0 25 44 68 70 68 12 0 32 -11 45 -25z"/>
<path d="M1483 1965 c-33 -33 -35 -39 -31 -86 9 -88 83 -131 161 -94 110 52
72 215 -50 215 -38 0 -50 -5 -80 -35z m121 -26 c32 -25 36 -77 7 -103 -28 -25
-79 -17 -104 16 -17 23 -18 31 -8 56 12 27 41 50 67 51 6 1 23 -8 38 -20z"/>
<path d="M807 1700 c-41 -12 -93 -55 -111 -91 -20 -40 -21 -131 -2 -168 19
-36 80 -89 112 -97 50 -13 131 1 167 29 42 32 77 100 77 148 -1 122 -126 214
-243 179z m136 -46 c69 -36 93 -162 41 -224 -36 -42 -74 -60 -127 -60 -59 0
-106 32 -136 93 -21 44 -22 51 -11 92 29 105 135 149 233 99z"/>
<path d="M1270 1694 c-139 -60 -160 -236 -39 -323 36 -26 51 -31 101 -31 65 0
100 14 139 57 40 42 49 66 49 125 0 131 -133 223 -250 172z m150 -43 c126 -91
71 -281 -80 -281 -62 0 -110 28 -138 81 -43 80 -11 172 72 210 48 23 107 19
146 -10z"/>
<path d="M1729 1687 c-65 -35 -98 -88 -99 -160 0 -64 9 -87 49 -130 39 -43 74
-57 139 -57 50 0 65 5 101 31 123 88 100 264 -41 323 -52 22 -98 20 -149 -7z
m166 -35 c43 -25 78 -96 70 -147 -14 -90 -78 -141 -167 -133 -91 9 -142 72
-135 166 8 114 128 173 232 114z"/>
<path d="M1015 1281 c-45 -27 -83 -77 -91 -117 -18 -95 19 -174 99 -213 80
-39 157 -22 220 48 78 87 52 227 -54 281 -50 26 -133 27 -174 1z m179 -36 c29
-19 66 -90 66 -127 0 -43 -28 -95 -66 -125 -47 -35 -128 -39 -171 -7 -54 40
-75 83 -71 142 5 61 28 96 78 124 42 23 123 19 164 -7z"/>
<path d="M1485 1281 c-80 -50 -118 -129 -96 -203 45 -153 219 -198 319 -84
108 123 24 306 -139 306 -35 0 -64 -7 -84 -19z m142 -22 c44 -16 80 -57 93
-105 11 -38 10 -51 -5 -89 -24 -64 -71 -98 -138 -98 -99 -1 -157 54 -157 149
0 110 104 182 207 143z"/>
<path d="M1010 639 c-91 -38 -125 -139 -75 -224 25 -44 79 -75 130 -75 45 0
99 29 125 67 66 96 4 229 -111 239 -24 2 -55 -1 -69 -7z m129 -70 c25 -25 31
-39 31 -74 0 -35 -6 -49 -31 -74 -25 -25 -39 -31 -76 -31 -36 0 -50 6 -74 29
-24 24 -29 38 -29 76 0 40 5 52 31 76 45 42 105 41 148 -2z"/>
<path d="M1038 508 c-9 -23 3 -38 28 -38 19 0 24 5 24 25 0 20 -5 25 -24 25
-13 0 -26 -6 -28 -12z"/>
<path d="M1540 639 c-88 -37 -125 -138 -79 -218 43 -75 123 -100 201 -62 108
52 117 189 17 264 -31 23 -103 31 -139 16z m116 -57 c82 -66 42 -192 -61 -192
-34 0 -50 6 -74 29 -26 25 -31 36 -31 76 0 40 5 51 31 76 37 34 100 40 135 11z"/>
<path d="M1576 515 c-20 -20 -20 -20 -1 -39 19 -18 45 -10 45 14 0 29 -25 43
-44 25z"/>
</g>
</svg>
