<svg version="1.1" id="Layer_1" xmlns="http://www.w3.org/2000/svg" xmlns:xlink="http://www.w3.org/1999/xlink" x="0px" y="0px"
	 width="100%" viewBox="0 0 624 608" enable-background="new 0 0 624 608" xml:space="preserve">
<path fill="#000000" opacity="1.000000" stroke="none" 
	d="
M586.245483,313.998901 
	C584.638855,389.906006 557.176025,454.193420 503.063599,506.829987 
	C463.968140,544.859070 417.162811,568.211914 363.679291,578.085510 
	C313.808868,587.292236 264.851135,582.756958 217.996155,563.753052 
	C134.564529,529.914001 79.626625,469.358795 55.404449,382.459839 
	C35.738018,311.904938 44.856899,244.030762 80.315765,180.146515 
	C113.277390,120.761406 162.561066,79.984261 226.410080,57.013733 
	C260.508057,44.746540 295.899139,39.311527 331.993439,42.067497 
	C415.540955,48.446743 483.311829,84.788460 533.716980,152.025177 
	C562.173157,189.983505 578.702393,232.971268 584.402405,280.122711 
	C585.744690,291.226746 586.464050,302.327576 586.245483,313.998901 
M520.948730,449.468536 
	C555.052002,398.309601 568.201294,342.145081 560.857361,281.192444 
	C554.424011,227.797516 532.406250,181.465576 495.437256,142.668930 
	C452.003448,97.087852 398.757141,71.230385 335.670471,66.008354 
	C301.791290,63.203999 268.653717,66.885094 236.750000,78.111267 
	C170.711792,101.348572 122.145081,144.665161 92.079926,208.084381 
	C69.994705,254.670807 64.127464,303.778534 72.746391,354.297333 
	C82.321175,410.418854 108.731651,457.827972 151.379196,495.624664 
	C210.408020,547.939453 279.582733,567.935120 357.110413,555.258545 
	C426.303833,543.944702 480.589050,507.696503 520.948730,449.468536 
z"/>
<path fill="#000000" opacity="1.000000" stroke="none" 
	d="
M545.153503,256.058807 
	C550.941650,279.784088 552.659424,303.533661 551.125244,327.349274 
	C547.584106,382.319397 527.055603,430.330933 489.864044,471.015381 
	C456.023560,508.033905 414.604797,532.684265 365.415527,542.368958 
	C288.457428,557.520996 219.225143,540.251221 159.784363,488.313995 
	C118.829758,452.529297 93.101486,407.317078 84.183876,353.755890 
	C71.594749,278.142670 90.397095,210.647369 141.899948,153.304764 
	C177.244064,113.953102 221.396317,89.050346 273.547333,80.274551 
	C349.376404,67.514259 416.915863,86.269905 474.561584,137.766937 
	C510.244476,169.643814 533.114685,209.449432 545.153503,256.058807 
M107.409218,293.412415 
	C99.155373,293.402679 99.160637,293.402679 99.168022,301.880707 
	C99.173836,308.546021 99.157791,315.211304 99.163429,321.876617 
	C99.174942,335.471893 99.176628,335.551605 112.475624,335.824890 
	C115.895691,335.895172 117.437836,336.668945 117.584740,340.592529 
	C118.326973,360.417175 118.019920,380.247345 117.732040,400.060394 
	C117.611458,408.360168 119.996376,415.370117 124.083694,422.175354 
	C140.406403,449.352020 160.868774,472.751251 186.753204,491.279236 
	C218.855453,514.257874 254.287323,528.306213 293.750427,531.955872 
	C298.080353,532.356323 298.880249,530.896118 298.762207,527.120361 
	C298.554108,520.461609 298.695251,513.791504 298.722351,507.126251 
	C298.735992,503.766602 299.940491,500.949951 303.643158,500.770264 
	C311.456116,500.391144 319.290222,500.199707 327.110077,500.313690 
	C331.233276,500.373810 333.353149,502.941223 333.314270,507.208649 
	C333.255066,513.706726 333.258911,520.206482 333.342834,526.704102 
	C333.365295,528.441284 332.698364,530.398132 334.390656,531.902405 
	C339.734802,532.403137 345.015015,531.369385 350.206848,530.521301 
	C358.730499,529.128723 367.290588,527.520935 375.558136,525.069153 
	C433.624756,507.849121 478.034180,473.043945 508.574249,420.716339 
	C511.882477,415.047974 514.948730,409.357483 514.771790,402.103119 
	C514.300415,382.785309 514.624084,363.448151 514.624939,344.118683 
	C514.625488,330.856232 514.618103,330.734802 527.856567,330.482452 
	C531.888367,330.405579 533.011475,328.734741 532.934937,324.999329 
	C532.764221,316.671234 532.891785,308.337128 532.889526,300.005463 
	C532.886292,288.237152 532.878906,287.997406 520.942810,288.204468 
	C515.713745,288.295197 514.491211,286.322693 514.545410,281.457581 
	C514.768005,261.464081 514.532349,241.465729 514.708496,221.471298 
	C514.749634,216.807388 513.873474,212.635117 511.594543,208.605286 
	C473.098541,140.534103 415.436371,101.130196 337.469208,91.955772 
	C334.249573,91.576912 333.247437,92.501823 333.283966,95.554306 
	C333.367767,102.551750 333.253479,109.551346 333.300079,116.549530 
	C333.329865,121.023254 331.402527,123.431839 326.738098,123.400246 
	C319.573273,123.351715 312.407745,123.361053 305.242706,123.390350 
	C300.911285,123.408066 298.777771,121.268944 298.736725,116.980286 
	C298.714386,114.647606 298.713318,112.314667 298.712067,109.981850 
	C298.708893,104.057007 298.710999,98.132156 298.710999,91.917732 
	C284.576691,92.233017 271.710510,94.858017 259.041290,98.208496 
	C233.018738,105.090401 209.094452,116.540596 187.233978,132.300003 
	C159.748428,152.114609 138.051544,177.015518 121.512169,206.520844 
	C118.676628,211.579300 117.215370,216.750061 117.326317,222.661697 
	C117.692039,242.148743 117.022820,261.645569 117.781158,281.136322 
	C117.933693,285.056763 117.377205,289.004822 117.152031,292.864349 
	C113.953644,293.868225 111.108742,293.210510 107.409218,293.412415 
z"/>
<path fill="#000000" opacity="1.000000" stroke="none" 
	d="
M379.251404,312.911285 
	C379.499756,299.889740 383.641327,288.989594 393.525177,280.789795 
	C407.022644,269.592163 422.172729,267.610260 437.847961,274.877289 
	C452.797028,281.807648 460.435822,294.068146 461.417206,310.829651 
	C462.441284,328.320831 449.778717,350.526672 423.808167,353.009552 
	C403.996368,354.903625 384.984497,342.437042 380.181305,320.753906 
	C379.645111,318.333466 379.560150,315.813080 379.251404,312.911285 
z"/>
<path fill="#000000" opacity="1.000000" stroke="none" 
	d="
M244.275330,286.803162 
	C254.427872,301.153351 255.730179,316.182617 247.941132,331.324768 
	C240.450531,345.886810 227.604294,353.051544 211.344635,353.148346 
	C190.610840,353.271820 172.271210,336.360107 170.760864,316.409729 
	C169.023026,293.454315 183.542938,274.831116 205.570236,271.539978 
	C221.312759,269.187866 233.907669,274.644073 244.275330,286.803162 
z"/>
<path fill="#000000" opacity="1.000000" stroke="none" 
	d="
M320.731384,298.820984 
	C324.470032,300.246338 324.373779,301.933441 322.046631,304.416016 
	C316.590485,310.236603 315.950714,310.412018 311.149567,305.515656 
	C309.837097,304.177155 307.491150,303.047333 308.438751,300.714539 
	C309.261658,298.688690 311.651489,298.629456 313.538025,298.108246 
	C315.872009,297.463470 318.126221,297.972992 320.731384,298.820984 
z"/>
<path fill="#000000" opacity="1.000000" stroke="none" 
	d="
M319.301025,310.598816 
	C320.264526,309.418335 320.932800,308.425629 321.826904,307.718506 
	C323.434296,306.447388 324.433929,303.688995 326.917023,304.411163 
	C329.251343,305.090088 329.511993,307.753571 329.870514,309.796478 
	C330.515839,313.473938 330.411438,317.326294 326.913910,319.574219 
	C324.961121,320.829285 319.767883,314.913300 319.301025,310.598816 
z"/>
<path fill="#000000" opacity="1.000000" stroke="none" 
	d="
M323.691101,321.504883 
	C321.407074,326.593048 312.422913,327.868530 308.981903,323.963409 
	C308.403320,323.306763 308.095612,322.647156 308.308197,321.726898 
	C309.537415,316.405670 316.431458,314.220001 320.451813,317.925964 
	C321.546936,318.935455 322.515808,320.081848 323.691101,321.504883 
z"/>
<path fill="#000000" opacity="1.000000" stroke="none" 
	d="
M307.007996,319.040161 
	C304.886169,320.312073 303.845917,319.253601 303.312164,317.731689 
	C302.665070,315.886658 301.942413,313.937103 301.933594,312.029663 
	C301.920166,309.124207 302.034698,305.927734 305.167236,304.356720 
	C306.427765,303.724518 312.894684,309.321381 312.911682,311.229736 
	C312.945526,315.031372 309.424011,316.465912 307.007996,319.040161 
z"/>
</svg>