<?xml version="1.0" encoding="UTF-8"?>
<!DOCTYPE svg PUBLIC "-//W3C//DTD SVG 1.1//EN" "http://www.w3.org/Graphics/SVG/1.1/DTD/svg11.dtd">
<svg xmlns="http://www.w3.org/2000/svg" version="1.1" width="500px" height="500px" style="shape-rendering:geometricPrecision; text-rendering:geometricPrecision; image-rendering:optimizeQuality; fill-rule:evenodd; clip-rule:evenodd" xmlns:xlink="http://www.w3.org/1999/xlink">
<g><path style="opacity:0.937" fill="#f8f7c8" d="M 255.5,79.5 C 251.452,79.3946 247.452,79.7279 243.5,80.5C 241.5,80.5 239.5,80.5 237.5,80.5C 243.452,78.7033 249.452,78.37 255.5,79.5 Z"/></g>
<g><path style="opacity:1" fill="#dbe171" d="M 255.5,79.5 C 262.981,81.2363 270.648,82.7363 278.5,84C 283.393,85.5427 288.06,87.376 292.5,89.5C 290.046,89.3205 287.879,89.9872 286,91.5C 284.941,91.3699 284.108,90.8699 283.5,90C 284.833,89.3333 284.833,88.6667 283.5,88C 279.827,86.703 276.327,85.8696 273,85.5C 272.667,86.1667 272.333,86.8333 272,87.5C 270.418,85.2888 268.251,83.9554 265.5,83.5C 263.5,84.8333 261.5,86.1667 259.5,87.5C 256.188,85.2352 253.188,85.7352 250.5,89C 246.459,89.8265 242.459,89.6599 238.5,88.5C 242.577,86.3154 246.91,84.8154 251.5,84C 249.699,83.6827 249.366,83.016 250.5,82C 243.725,83.3321 236.725,83.8321 229.5,83.5C 234.113,82.2105 238.78,81.2105 243.5,80.5C 247.452,79.7279 251.452,79.3946 255.5,79.5 Z"/></g>
<g><path style="opacity:0.839" fill="#e8eca4" d="M 237.5,80.5 C 239.5,80.5 241.5,80.5 243.5,80.5C 238.78,81.2105 234.113,82.2105 229.5,83.5C 227.143,83.3367 224.81,83.5034 222.5,84C 217.669,86.0835 212.669,87.5835 207.5,88.5C 216.808,83.6713 226.808,81.0046 237.5,80.5 Z"/></g>
<g><path style="opacity:1" fill="#dce270" d="M 294.5,89.5 C 298.651,92.7044 303.318,94.7044 308.5,95.5C 311.37,96.4333 313.704,98.1 315.5,100.5C 312.913,102.959 309.913,104.626 306.5,105.5C 306.5,104.5 306.5,103.5 306.5,102.5C 302.404,103.452 298.404,104.618 294.5,106C 295.252,106.671 295.586,107.504 295.5,108.5C 293.171,106.722 290.504,105.722 287.5,105.5C 285.833,105.5 284.167,105.5 282.5,105.5C 278.178,102.203 273.178,100.87 267.5,101.5C 264.833,100.833 262.167,100.167 259.5,99.5C 250.998,98.5627 242.332,98.5627 233.5,99.5C 236.028,98.8343 238.694,98.1676 241.5,97.5C 240.833,96.5 240.167,95.5 239.5,94.5C 240.167,94.1667 240.833,93.8333 241.5,93.5C 248.614,96.437 255.948,97.1036 263.5,95.5C 263.977,94.5224 264.643,93.6891 265.5,93C 264.692,92.6924 264.025,92.1924 263.5,91.5C 269.761,88.7304 275.761,89.2304 281.5,93C 276.839,93.1694 272.172,93.0027 267.5,92.5C 267.297,94.3904 267.963,95.8904 269.5,97C 268.5,97.3333 267.5,97.6667 266.5,98C 269.479,98.8909 272.479,99.7243 275.5,100.5C 277.228,100.41 278.894,100.077 280.5,99.5C 281.623,100.544 282.956,101.21 284.5,101.5C 287.926,99.3993 291.593,97.566 295.5,96C 294.332,94.5944 294.665,93.4277 296.5,92.5C 295.388,91.7348 294.721,90.7348 294.5,89.5 Z"/></g>
<g><path style="opacity:0.745" fill="#e8eda6" d="M 255.5,79.5 C 274.7,80.0459 292.367,85.3792 308.5,95.5C 303.318,94.7044 298.651,92.7044 294.5,89.5C 293.833,89.5 293.167,89.5 292.5,89.5C 288.06,87.376 283.393,85.5427 278.5,84C 270.648,82.7363 262.981,81.2363 255.5,79.5 Z"/></g>
<g><path style="opacity:1" fill="#e2e793" d="M 207.5,88.5 C 205.024,91.5778 201.691,93.4112 197.5,94C 195.978,95.5218 194.478,97.0218 193,98.5C 188.467,99.899 184.3,101.899 180.5,104.5C 188.369,97.3935 197.369,92.0601 207.5,88.5 Z"/></g>
<g><path style="opacity:1" fill="#ecf0b6" d="M 259.5,99.5 C 249.025,99.3611 238.692,100.361 228.5,102.5C 230.072,101.313 231.739,100.313 233.5,99.5C 242.332,98.5627 250.998,98.5627 259.5,99.5 Z"/></g>
<g><path style="opacity:1" fill="#fefefd" d="M 267.5,101.5 C 272.193,103.592 277.193,104.925 282.5,105.5C 284.167,105.5 285.833,105.5 287.5,105.5C 287.414,106.496 287.748,107.329 288.5,108C 292.904,109.191 296.571,111.358 299.5,114.5C 300.614,115.885 301.614,117.385 302.5,119C 306.436,119.972 310.103,121.472 313.5,123.5C 314.069,126.335 315.736,128.001 318.5,128.5C 318.285,130.179 318.952,131.179 320.5,131.5C 320.833,131.5 321.167,131.5 321.5,131.5C 322.967,136.3 325.634,140.3 329.5,143.5C 329.959,146.877 330.626,150.211 331.5,153.5C 332.5,153.5 333.5,153.5 334.5,153.5C 334.338,155.527 334.505,157.527 335,159.5C 337.676,164.71 339.843,170.044 341.5,175.5C 341.5,176.5 341.5,177.5 341.5,178.5C 330.167,178.5 318.833,178.5 307.5,178.5C 305.793,175.407 304.293,172.074 303,168.5C 300.57,165.899 297.736,163.899 294.5,162.5C 293.949,159.733 292.616,157.4 290.5,155.5C 286.819,154.139 283.152,152.805 279.5,151.5C 278.167,151.5 276.833,151.5 275.5,151.5C 275.167,151.5 274.833,151.5 274.5,151.5C 273.737,150.732 272.737,150.232 271.5,150C 258.171,149.5 244.837,149.333 231.5,149.5C 230.512,154.64 230.179,159.974 230.5,165.5C 221.494,165.334 212.494,165.5 203.5,166C 202.271,167.529 200.771,168.696 199,169.5C 198.211,171.712 198.378,173.712 199.5,175.5C 199.215,177.288 199.548,178.955 200.5,180.5C 202.002,181.083 203.335,181.916 204.5,183C 212.167,183.333 219.833,183.667 227.5,184C 228.167,184.333 228.833,184.667 229.5,185C 222.774,189.38 223.108,190.214 230.5,187.5C 230.5,188.833 230.5,190.167 230.5,191.5C 227.452,191.494 226.952,192.494 229,194.5C 229.497,197.146 229.664,199.813 229.5,202.5C 220.085,202.083 210.752,202.583 201.5,204C 198.478,207.092 197.812,210.592 199.5,214.5C 199.833,214.5 200.167,214.5 200.5,214.5C 201.203,216.716 202.536,218.549 204.5,220C 213.16,220.5 221.827,220.666 230.5,220.5C 230.181,225.363 230.514,230.03 231.5,234.5C 231.5,234.833 231.5,235.167 231.5,235.5C 247.338,236.827 263.338,236.827 279.5,235.5C 280.193,234.482 280.859,233.482 281.5,232.5C 282.492,232.672 283.158,232.338 283.5,231.5C 289.343,231.666 293.343,228.999 295.5,223.5C 297.238,221.079 298.571,218.412 299.5,215.5C 301.873,213.421 303.206,210.754 303.5,207.5C 303.833,207.5 304.167,207.5 304.5,207.5C 317.117,206.538 329.784,206.205 342.5,206.5C 342.5,207.833 342.5,209.167 342.5,210.5C 338.771,220.019 335.438,229.686 332.5,239.5C 332.167,239.5 331.833,239.5 331.5,239.5C 329.058,241.121 327.725,243.454 327.5,246.5C 325.46,249.698 323.126,252.698 320.5,255.5C 318.846,256.75 317.179,258.084 315.5,259.5C 312.062,261.759 308.729,264.259 305.5,267C 304.552,267.483 303.552,267.649 302.5,267.5C 302.5,268.5 302.5,269.5 302.5,270.5C 299.369,269.908 297.036,270.908 295.5,273.5C 292.5,275.5 289.5,277.5 286.5,279.5C 283.67,279.694 281.004,280.361 278.5,281.5C 265.634,282.949 252.634,283.949 239.5,284.5C 234.603,283.588 229.603,282.588 224.5,281.5C 223.942,280.21 222.942,279.377 221.5,279C 218.793,278.605 216.127,278.105 213.5,277.5C 208.598,275.378 203.931,272.712 199.5,269.5C 194.468,264.467 189.135,259.801 183.5,255.5C 183.167,255.5 182.833,255.5 182.5,255.5C 178.761,251.693 175.761,247.36 173.5,242.5C 171.121,238.909 169.121,235.076 167.5,231C 168.022,230.05 168.689,229.216 169.5,228.5C 168.726,227.289 167.893,227.289 167,228.5C 166.241,226.937 165.074,225.937 163.5,225.5C 163.672,224.508 163.338,223.842 162.5,223.5C 161.442,213.133 160.108,202.8 158.5,192.5C 159.355,186.866 159.688,181.199 159.5,175.5C 162.617,167.691 165.284,159.691 167.5,151.5C 167.66,149.847 168.326,148.514 169.5,147.5C 173.648,142.552 177.314,137.218 180.5,131.5C 185.427,126.911 190.427,122.244 195.5,117.5C 196.167,116.833 196.833,116.167 197.5,115.5C 201.431,114.868 204.765,113.201 207.5,110.5C 207.842,109.662 208.508,109.328 209.5,109.5C 213.804,107.092 218.471,105.426 223.5,104.5C 232.695,102.581 241.862,101.247 251,100.5C 256.477,101.248 261.977,101.581 267.5,101.5 Z"/></g>
<g><path style="opacity:1" fill="#fdfeeb" d="M 259.5,99.5 C 262.167,100.167 264.833,100.833 267.5,101.5C 261.977,101.581 256.477,101.248 251,100.5C 241.862,101.247 232.695,102.581 223.5,104.5C 225.167,103.833 226.833,103.167 228.5,102.5C 238.692,100.361 249.025,99.3611 259.5,99.5 Z"/></g>
<g><path style="opacity:1" fill="#f9f8df" d="M 267.5,101.5 C 273.178,100.87 278.178,102.203 282.5,105.5C 277.193,104.925 272.193,103.592 267.5,101.5 Z"/></g>
<g><path style="opacity:1" fill="#f1f5c1" d="M 228.5,102.5 C 226.833,103.167 225.167,103.833 223.5,104.5C 218.471,105.426 213.804,107.092 209.5,109.5C 210.29,108.206 211.29,107.039 212.5,106C 215.754,105.75 218.754,104.75 221.5,103C 223.81,102.503 226.143,102.337 228.5,102.5 Z"/></g>
<g><path style="opacity:1" fill="#dce483" d="M 233.5,99.5 C 231.739,100.313 230.072,101.313 228.5,102.5C 226.143,102.337 223.81,102.503 221.5,103C 218.754,104.75 215.754,105.75 212.5,106C 211.29,107.039 210.29,108.206 209.5,109.5C 208.508,109.328 207.842,109.662 207.5,110.5C 205.486,110.392 203.82,111.058 202.5,112.5C 203.43,108.907 205.763,107.241 209.5,107.5C 209.5,106.5 209.5,105.5 209.5,104.5C 217.382,102.432 225.382,100.766 233.5,99.5 Z"/></g>
<g><path style="opacity:0.682" fill="#f0f3b9" d="M 180.5,104.5 C 179.415,106.587 177.749,107.92 175.5,108.5C 176.585,106.413 178.251,105.08 180.5,104.5 Z"/></g>
<g><path style="opacity:0.992" fill="#e4e897" d="M 315.5,100.5 C 322.062,104.39 327.729,109.39 332.5,115.5C 328.43,112.94 324.764,109.773 321.5,106C 319.702,104.495 317.868,104.328 316,105.5C 315.506,103.866 315.34,102.199 315.5,100.5 Z"/></g>
<g><path style="opacity:1" fill="#f2f7c7" d="M 207.5,110.5 C 204.765,113.201 201.431,114.868 197.5,115.5C 198.59,114.143 199.924,113.143 201.5,112.5C 201.833,112.5 202.167,112.5 202.5,112.5C 203.82,111.058 205.486,110.392 207.5,110.5 Z"/></g>
<g><path style="opacity:1" fill="#e3e89b" d="M 287.5,105.5 C 290.504,105.722 293.171,106.722 295.5,108.5C 298.433,110.904 301.766,112.737 305.5,114C 307.706,116.037 309.706,118.203 311.5,120.5C 307.248,118.892 303.248,116.892 299.5,114.5C 296.571,111.358 292.904,109.191 288.5,108C 287.748,107.329 287.414,106.496 287.5,105.5 Z"/></g>
<g><path style="opacity:1" fill="#e1e997" d="M 175.5,108.5 C 173.234,112.436 170.234,115.769 166.5,118.5C 168.766,114.564 171.766,111.231 175.5,108.5 Z"/></g>
<g><path style="opacity:1" fill="#e4e89c" d="M 332.5,115.5 C 335.243,117.239 337.243,119.573 338.5,122.5C 335.757,120.761 333.757,118.427 332.5,115.5 Z"/></g>
<g><path style="opacity:1" fill="#dbe38a" d="M 201.5,112.5 C 199.924,113.143 198.59,114.143 197.5,115.5C 196.833,116.167 196.167,116.833 195.5,117.5C 193.938,117.733 192.605,118.4 191.5,119.5C 193.449,117.362 195.115,115.028 196.5,112.5C 198.167,112.5 199.833,112.5 201.5,112.5 Z"/></g>
<g><path style="opacity:1" fill="#fcfce7" d="M 299.5,114.5 C 303.248,116.892 307.248,118.892 311.5,120.5C 312.167,121.5 312.833,122.5 313.5,123.5C 310.103,121.472 306.436,119.972 302.5,119C 301.614,117.385 300.614,115.885 299.5,114.5 Z"/></g>
<g><path style="opacity:1" fill="#e2e89a" d="M 166.5,118.5 C 164.577,121.603 162.41,124.603 160,127.5C 159.506,129.134 159.34,130.801 159.5,132.5C 158.167,132.5 156.833,132.5 155.5,132.5C 158.411,127.254 162.078,122.587 166.5,118.5 Z"/></g>
<g><path style="opacity:1" fill="#eef2ba" d="M 195.5,117.5 C 190.427,122.244 185.427,126.911 180.5,131.5C 180.833,130.833 181.167,130.167 181.5,129.5C 184.284,125.743 187.617,122.41 191.5,119.5C 192.605,118.4 193.938,117.733 195.5,117.5 Z"/></g>
<g><path style="opacity:1" fill="#f8f8d7" d="M 313.5,123.5 C 316.623,125.541 318.957,128.208 320.5,131.5C 318.952,131.179 318.285,130.179 318.5,128.5C 315.736,128.001 314.069,126.335 313.5,123.5 Z"/></g>
<g><path style="opacity:1" fill="#dbe269" d="M 315.5,100.5 C 315.34,102.199 315.506,103.866 316,105.5C 317.868,104.328 319.702,104.495 321.5,106C 324.764,109.773 328.43,112.94 332.5,115.5C 333.757,118.427 335.757,120.761 338.5,122.5C 339.802,127.104 342.135,131.104 345.5,134.5C 344.772,136.155 344.605,137.821 345,139.5C 345.977,138.226 346.811,138.226 347.5,139.5C 347.578,143.264 346.078,146.264 343,148.5C 342.216,151.76 342.383,154.927 343.5,158C 343,158.167 342.5,158.333 342,158.5C 340.649,156.982 339.149,155.649 337.5,154.5C 337.25,152.326 336.25,150.659 334.5,149.5C 332.847,146.193 331.18,142.86 329.5,139.5C 326.688,134.632 323.688,129.966 320.5,125.5C 319.448,125.649 318.448,125.483 317.5,125C 315.886,122.873 313.886,121.373 311.5,120.5C 309.706,118.203 307.706,116.037 305.5,114C 301.766,112.737 298.433,110.904 295.5,108.5C 295.586,107.504 295.252,106.671 294.5,106C 298.404,104.618 302.404,103.452 306.5,102.5C 306.5,103.5 306.5,104.5 306.5,105.5C 309.913,104.626 312.913,102.959 315.5,100.5 Z"/></g>
<g><path style="opacity:1" fill="#dde485" d="M 311.5,120.5 C 313.886,121.373 315.886,122.873 317.5,125C 318.448,125.483 319.448,125.649 320.5,125.5C 323.688,129.966 326.688,134.632 329.5,139.5C 328.833,139.5 328.167,139.5 327.5,139.5C 326.647,135.98 324.647,133.313 321.5,131.5C 321.167,131.5 320.833,131.5 320.5,131.5C 318.957,128.208 316.623,125.541 313.5,123.5C 312.833,122.5 312.167,121.5 311.5,120.5 Z"/></g>
<g><path style="opacity:1" fill="#f4f8d0" d="M 180.5,131.5 C 177.314,137.218 173.648,142.552 169.5,147.5C 172.172,141.492 175.839,136.159 180.5,131.5 Z"/></g>
<g><path style="opacity:1" fill="#dfe586" d="M 338.5,122.5 C 344.324,128.135 348.657,134.802 351.5,142.5C 350.5,142.5 349.5,142.5 348.5,142.5C 348.737,141.209 348.404,140.209 347.5,139.5C 346.811,138.226 345.977,138.226 345,139.5C 344.605,137.821 344.772,136.155 345.5,134.5C 342.135,131.104 339.802,127.104 338.5,122.5 Z"/></g>
<g><path style="opacity:1" fill="#e4e996" d="M 155.5,132.5 C 154.946,137.04 152.946,140.706 149.5,143.5C 150.742,139.345 152.742,135.678 155.5,132.5 Z"/></g>
<g><path style="opacity:1" fill="#f6f9d5" d="M 321.5,131.5 C 324.647,133.313 326.647,135.98 327.5,139.5C 328.6,140.605 329.267,141.938 329.5,143.5C 325.634,140.3 322.967,136.3 321.5,131.5 Z"/></g>
<g><path style="opacity:1" fill="#dee489" d="M 181.5,129.5 C 181.167,130.167 180.833,130.833 180.5,131.5C 175.839,136.159 172.172,141.492 169.5,147.5C 168.326,148.514 167.66,149.847 167.5,151.5C 164.752,154.732 162.752,158.398 161.5,162.5C 162.346,157.67 163.679,153.003 165.5,148.5C 167.047,147.232 168.047,145.565 168.5,143.5C 171.979,139.881 174.979,135.881 177.5,131.5C 178.577,130.295 179.91,129.628 181.5,129.5 Z"/></g>
<g><path style="opacity:1" fill="#eaefae" d="M 327.5,139.5 C 328.167,139.5 328.833,139.5 329.5,139.5C 331.18,142.86 332.847,146.193 334.5,149.5C 332.051,148.06 330.385,146.06 329.5,143.5C 329.267,141.938 328.6,140.605 327.5,139.5 Z"/></g>
<g><path style="opacity:1" fill="#e7eaa1" d="M 149.5,143.5 C 148.305,148.88 146.305,153.88 143.5,158.5C 144.343,152.957 146.343,147.957 149.5,143.5 Z"/></g>
<g><path style="opacity:1" fill="#e1e78f" d="M 354.5,148.5 C 356.806,152.085 358.139,156.085 358.5,160.5C 354.917,157.499 353.584,153.499 354.5,148.5 Z"/></g>
<g><path style="opacity:0.882" fill="#ebeca4" d="M 143.5,158.5 C 143.59,161.152 142.924,163.485 141.5,165.5C 141.41,162.848 142.076,160.515 143.5,158.5 Z"/></g>
<g><path style="opacity:0.455" fill="#e7eca1" d="M 358.5,160.5 C 359.924,162.515 360.59,164.848 360.5,167.5C 359.076,165.485 358.41,163.152 358.5,160.5 Z"/></g>
<g><path style="opacity:1" fill="#dce16e" d="M 347.5,139.5 C 348.404,140.209 348.737,141.209 348.5,142.5C 349.5,142.5 350.5,142.5 351.5,142.5C 353.008,144.181 354.008,146.181 354.5,148.5C 353.584,153.499 354.917,157.499 358.5,160.5C 358.41,163.152 359.076,165.485 360.5,167.5C 360.5,167.833 360.5,168.167 360.5,168.5C 360.5,170.167 360.5,171.833 360.5,173.5C 359.279,174.028 358.113,174.695 357,175.5C 354.047,196.643 353.047,196.643 354,175.5C 355.762,173.258 357.262,170.924 358.5,168.5C 358.617,165.192 357.95,164.859 356.5,167.5C 355.682,164.893 355.182,162.226 355,159.5C 354.167,158.5 353.333,157.5 352.5,156.5C 352.167,157.167 351.833,157.833 351.5,158.5C 353.416,163.002 353.916,167.668 353,172.5C 352.333,173.167 351.667,173.833 351,174.5C 350.547,169.974 349.38,165.641 347.5,161.5C 348.981,157.279 350.648,153.113 352.5,149C 351.258,147.349 350.424,145.515 350,143.5C 349.333,144.167 348.667,144.833 348,145.5C 346.518,150.776 345.351,156.11 344.5,161.5C 345.579,164.872 346.579,168.206 347.5,171.5C 346.898,175.343 345.565,178.677 343.5,181.5C 343.5,181.167 343.5,180.833 343.5,180.5C 343.784,178.585 343.451,176.919 342.5,175.5C 341.991,170.128 341.158,164.795 340,159.5C 339.148,158.429 338.315,157.429 337.5,156.5C 337.5,155.833 337.5,155.167 337.5,154.5C 339.149,155.649 340.649,156.982 342,158.5C 342.5,158.333 343,158.167 343.5,158C 342.383,154.927 342.216,151.76 343,148.5C 346.078,146.264 347.578,143.264 347.5,139.5 Z"/></g>
<g><path style="opacity:1" fill="#e1e68b" d="M 141.5,165.5 C 141.414,172.037 140.747,178.37 139.5,184.5C 139.5,180.833 139.5,177.167 139.5,173.5C 139.565,170.572 140.232,167.905 141.5,165.5 Z"/></g>
<g><path style="opacity:0.875" fill="#e5e89f" d="M 360.5,168.5 C 365.127,182.442 365.46,196.442 361.5,210.5C 362.998,198.082 362.664,185.749 360.5,173.5C 360.5,171.833 360.5,170.167 360.5,168.5 Z"/></g>
<g><path style="opacity:0.484" fill="#e9edb1" d="M 139.5,173.5 C 139.5,177.167 139.5,180.833 139.5,184.5C 138.243,189.703 138.243,195.036 139.5,200.5C 139.81,203.713 139.477,206.713 138.5,209.5C 136.922,197.301 137.256,185.301 139.5,173.5 Z"/></g>
<g><path style="opacity:1" fill="#e3e894" d="M 139.5,200.5 C 140.44,208.043 141.44,215.71 142.5,223.5C 141.186,218.921 139.852,214.254 138.5,209.5C 139.477,206.713 139.81,203.713 139.5,200.5 Z"/></g>
<g><path style="opacity:0.635" fill="#e4e89d" d="M 361.5,210.5 C 361.802,214.79 361.136,218.79 359.5,222.5C 359.717,218.295 360.383,214.295 361.5,210.5 Z"/></g>
<g><path style="opacity:0.898" fill="#e6e89d" d="M 142.5,223.5 C 143.79,224.058 144.623,225.058 145,226.5C 146.157,230.782 146.99,235.116 147.5,239.5C 145.059,234.506 143.393,229.172 142.5,223.5 Z"/></g>
<g><path style="opacity:1" fill="#dce26a" d="M 292.5,89.5 C 293.167,89.5 293.833,89.5 294.5,89.5C 294.721,90.7348 295.388,91.7348 296.5,92.5C 294.665,93.4277 294.332,94.5944 295.5,96C 291.593,97.566 287.926,99.3993 284.5,101.5C 282.956,101.21 281.623,100.544 280.5,99.5C 278.894,100.077 277.228,100.41 275.5,100.5C 272.479,99.7243 269.479,98.8909 266.5,98C 267.5,97.6667 268.5,97.3333 269.5,97C 267.963,95.8904 267.297,94.3904 267.5,92.5C 272.172,93.0027 276.839,93.1694 281.5,93C 275.761,89.2304 269.761,88.7304 263.5,91.5C 264.025,92.1924 264.692,92.6924 265.5,93C 264.643,93.6891 263.977,94.5224 263.5,95.5C 255.948,97.1036 248.614,96.437 241.5,93.5C 240.833,93.8333 240.167,94.1667 239.5,94.5C 240.167,95.5 240.833,96.5 241.5,97.5C 238.694,98.1676 236.028,98.8343 233.5,99.5C 225.382,100.766 217.382,102.432 209.5,104.5C 209.5,105.5 209.5,106.5 209.5,107.5C 205.763,107.241 203.43,108.907 202.5,112.5C 202.167,112.5 201.833,112.5 201.5,112.5C 199.833,112.5 198.167,112.5 196.5,112.5C 195.115,115.028 193.449,117.362 191.5,119.5C 187.617,122.41 184.284,125.743 181.5,129.5C 179.91,129.628 178.577,130.295 177.5,131.5C 174.979,135.881 171.979,139.881 168.5,143.5C 168.047,145.565 167.047,147.232 165.5,148.5C 163.679,153.003 162.346,157.67 161.5,162.5C 159.817,166.636 159.15,170.969 159.5,175.5C 159.167,175.5 158.833,175.5 158.5,175.5C 157.593,177.657 156.927,179.99 156.5,182.5C 155.834,187.017 155.167,191.683 154.5,196.5C 153.808,197.025 153.308,197.692 153,198.5C 152.667,198.167 152.333,197.833 152,197.5C 151.097,201.033 151.43,204.367 153,207.5C 153.333,205.5 153.667,203.5 154,201.5C 156.889,207.786 158.555,214.453 159,221.5C 160.167,224.167 161.333,226.833 162.5,229.5C 162.05,233.863 161.716,238.196 161.5,242.5C 164.388,242.78 165.888,241.447 166,238.5C 168.168,239.629 168.668,241.129 167.5,243C 168.676,244.674 170.01,246.174 171.5,247.5C 169.124,252.628 169.957,253.294 174,249.5C 174.175,252.157 174.008,254.824 173.5,257.5C 175.492,257.672 177.158,257.005 178.5,255.5C 179.672,255.919 180.672,256.585 181.5,257.5C 179.235,258.7 177.402,260.367 176,262.5C 176.14,264.851 176.64,267.184 177.5,269.5C 178.833,269.5 180.167,269.5 181.5,269.5C 181.5,270.5 181.5,271.5 181.5,272.5C 184.556,270.789 187.556,268.789 190.5,266.5C 193.079,267.888 193.079,269.388 190.5,271C 193.194,270.388 195.86,270.555 198.5,271.5C 204.19,275.841 210.523,278.841 217.5,280.5C 218.167,280.5 218.5,280.833 218.5,281.5C 218.577,282.75 219.244,283.583 220.5,284C 230.4,286.141 240.4,287.641 250.5,288.5C 258.294,288.69 265.961,287.857 273.5,286C 274.381,285.292 275.047,284.458 275.5,283.5C 281.679,281.61 288.012,280.443 294.5,280C 293.584,279.722 292.918,279.222 292.5,278.5C 294.5,277.167 296.167,275.5 297.5,273.5C 301.684,271.44 305.684,269.107 309.5,266.5C 314.145,263.855 317.812,260.188 320.5,255.5C 322.478,253.741 324.644,252.075 327,250.5C 327.49,249.207 327.657,247.873 327.5,246.5C 330.518,245.145 331.851,242.812 331.5,239.5C 331.833,239.5 332.167,239.5 332.5,239.5C 334.081,237.326 335.581,234.993 337,232.5C 339.394,225.258 341.56,217.924 343.5,210.5C 343.5,208.833 343.5,207.167 343.5,205.5C 343.389,204.883 343.056,204.383 342.5,204C 340.19,203.503 337.857,203.337 335.5,203.5C 326.009,202.342 316.342,202.175 306.5,203C 305.234,203.309 304.067,203.809 303,204.5C 301.413,208.048 300.246,211.715 299.5,215.5C 294.976,218.963 290.976,222.963 287.5,227.5C 287.5,227.833 287.5,228.167 287.5,228.5C 287.5,229.167 287.167,229.5 286.5,229.5C 281.5,230.833 276.5,232.167 271.5,233.5C 258.5,233.5 245.5,233.5 232.5,233.5C 232.819,228.637 232.486,223.97 231.5,219.5C 223.343,218.671 215.01,218.171 206.5,218C 205.211,216.198 203.544,215.031 201.5,214.5C 201.02,211.315 201.686,208.481 203.5,206C 213.009,205.83 222.342,205.33 231.5,204.5C 231.5,204.167 231.5,203.833 231.5,203.5C 232.827,196.098 232.827,188.598 231.5,181C 223.507,180.5 215.507,180.334 207.5,180.5C 200.386,177.52 199.719,173.354 205.5,168C 214.343,167.83 223.01,167.33 231.5,166.5C 231.5,166.167 231.5,165.833 231.5,165.5C 232.486,161.03 232.819,156.363 232.5,151.5C 244.838,151.333 257.171,151.5 269.5,152C 271.866,152.44 274.199,152.94 276.5,153.5C 283.669,156.247 290.003,160.247 295.5,165.5C 297.194,166.527 298.527,167.861 299.5,169.5C 300.693,173.385 302.027,177.219 303.5,181C 316.829,181.5 330.163,181.667 343.5,181.5C 345.565,178.677 346.898,175.343 347.5,171.5C 346.579,168.206 345.579,164.872 344.5,161.5C 345.351,156.11 346.518,150.776 348,145.5C 348.667,144.833 349.333,144.167 350,143.5C 350.424,145.515 351.258,147.349 352.5,149C 350.648,153.113 348.981,157.279 347.5,161.5C 349.38,165.641 350.547,169.974 351,174.5C 351.667,173.833 352.333,173.167 353,172.5C 353.916,167.668 353.416,163.002 351.5,158.5C 351.833,157.833 352.167,157.167 352.5,156.5C 353.333,157.5 354.167,158.5 355,159.5C 355.182,162.226 355.682,164.893 356.5,167.5C 357.95,164.859 358.617,165.192 358.5,168.5C 357.262,170.924 355.762,173.258 354,175.5C 353.047,196.643 354.047,196.643 357,175.5C 358.113,174.695 359.279,174.028 360.5,173.5C 362.664,185.749 362.998,198.082 361.5,210.5C 360.383,214.295 359.717,218.295 359.5,222.5C 359.5,222.833 359.5,223.167 359.5,223.5C 358.21,224.058 357.377,225.058 357,226.5C 355.639,232.141 354.472,237.808 353.5,243.5C 349.37,247.108 347.37,251.774 347.5,257.5C 342.53,264.443 338.863,272.11 336.5,280.5C 334.704,281.793 333.037,283.293 331.5,285C 329.888,285.72 328.388,285.554 327,284.5C 326.5,285 326,285.5 325.5,286C 327.244,288.963 327.744,292.129 327,295.5C 325.89,297.037 324.39,297.703 322.5,297.5C 322.662,299.527 322.495,301.527 322,303.5C 320.519,304.471 319.685,305.804 319.5,307.5C 313.432,316 308.099,325 303.5,334.5C 296.201,341.476 289.534,349.143 283.5,357.5C 282.25,357.423 281.417,356.756 281,355.5C 280.51,356.793 280.343,358.127 280.5,359.5C 279.5,359.5 278.5,359.5 277.5,359.5C 276.745,362.512 275.412,365.178 273.5,367.5C 267.274,374.379 260.274,380.712 252.5,386.5C 248.867,388.317 246.533,387.317 245.5,383.5C 244.235,379.562 241.568,377.562 237.5,377.5C 235.222,375.889 233.222,373.889 231.5,371.5C 229.5,367.5 226.5,364.5 222.5,362.5C 220.087,360.094 218.087,357.428 216.5,354.5C 214.978,350.436 212.311,347.436 208.5,345.5C 205.305,340.431 201.638,335.765 197.5,331.5C 197.579,330.07 197.246,328.736 196.5,327.5C 192.42,323.636 189.92,318.969 189,313.5C 188.259,312.359 187.425,312.359 186.5,313.5C 185.712,312.23 184.712,311.23 183.5,310.5C 177.028,298.226 170.528,285.892 164,273.5C 163.667,271.833 163.333,270.167 163,268.5C 161.383,266.237 159.55,264.237 157.5,262.5C 157.448,259.654 156.448,257.32 154.5,255.5C 154.447,252.86 153.78,250.36 152.5,248C 153.275,245.178 153.942,242.344 154.5,239.5C 153.5,239.5 152.5,239.5 151.5,239.5C 151.657,240.873 151.49,242.207 151,243.5C 150.051,241.907 148.885,240.574 147.5,239.5C 146.99,235.116 146.157,230.782 145,226.5C 144.623,225.058 143.79,224.058 142.5,223.5C 141.44,215.71 140.44,208.043 139.5,200.5C 138.243,195.036 138.243,189.703 139.5,184.5C 140.747,178.37 141.414,172.037 141.5,165.5C 142.924,163.485 143.59,161.152 143.5,158.5C 146.305,153.88 148.305,148.88 149.5,143.5C 152.946,140.706 154.946,137.04 155.5,132.5C 156.833,132.5 158.167,132.5 159.5,132.5C 159.34,130.801 159.506,129.134 160,127.5C 162.41,124.603 164.577,121.603 166.5,118.5C 170.234,115.769 173.234,112.436 175.5,108.5C 177.749,107.92 179.415,106.587 180.5,104.5C 184.3,101.899 188.467,99.899 193,98.5C 194.478,97.0218 195.978,95.5218 197.5,94C 201.691,93.4112 205.024,91.5778 207.5,88.5C 212.669,87.5835 217.669,86.0835 222.5,84C 224.81,83.5034 227.143,83.3367 229.5,83.5C 236.725,83.8321 243.725,83.3321 250.5,82C 249.366,83.016 249.699,83.6827 251.5,84C 246.91,84.8154 242.577,86.3154 238.5,88.5C 242.459,89.6599 246.459,89.8265 250.5,89C 253.188,85.7352 256.188,85.2352 259.5,87.5C 261.5,86.1667 263.5,84.8333 265.5,83.5C 268.251,83.9554 270.418,85.2888 272,87.5C 272.333,86.8333 272.667,86.1667 273,85.5C 276.327,85.8696 279.827,86.703 283.5,88C 284.833,88.6667 284.833,89.3333 283.5,90C 284.108,90.8699 284.941,91.3699 286,91.5C 287.879,89.9872 290.046,89.3205 292.5,89.5 Z"/></g>
<g><path style="opacity:1" fill="#dfe48a" d="M 231.5,219.5 C 232.486,223.97 232.819,228.637 232.5,233.5C 245.5,233.5 258.5,233.5 271.5,233.5C 258.344,234.496 245.01,234.829 231.5,234.5C 231.5,229.5 231.5,224.5 231.5,219.5 Z"/></g>
<g><path style="opacity:1" fill="#f1f3bf" d="M 286.5,229.5 C 285.5,230.167 284.5,230.833 283.5,231.5C 283.158,232.338 282.492,232.672 281.5,232.5C 279.284,232.275 277.617,233.108 276.5,235C 261.504,235.5 246.504,235.667 231.5,235.5C 231.5,235.167 231.5,234.833 231.5,234.5C 245.01,234.829 258.344,234.496 271.5,233.5C 276.5,232.167 281.5,230.833 286.5,229.5 Z"/></g>
<g><path style="opacity:1" fill="#f0f1b9" d="M 293.5,223.5 C 292.699,226.572 290.699,228.238 287.5,228.5C 287.5,228.167 287.5,227.833 287.5,227.5C 289.813,226.5 291.813,225.166 293.5,223.5 Z"/></g>
<g><path style="opacity:1" fill="#fefeeb" d="M 293.5,223.5 C 294.167,223.5 294.833,223.5 295.5,223.5C 293.343,228.999 289.343,231.666 283.5,231.5C 284.5,230.833 285.5,230.167 286.5,229.5C 287.167,229.5 287.5,229.167 287.5,228.5C 290.699,228.238 292.699,226.572 293.5,223.5 Z"/></g>
<g><path style="opacity:1" fill="#e1e58c" d="M 299.5,215.5 C 298.571,218.412 297.238,221.079 295.5,223.5C 294.833,223.5 294.167,223.5 293.5,223.5C 291.813,225.166 289.813,226.5 287.5,227.5C 290.976,222.963 294.976,218.963 299.5,215.5 Z"/></g>
<g><path style="opacity:1" fill="#fcfddd" d="M 200.5,214.5 C 200.833,214.5 201.167,214.5 201.5,214.5C 202.625,216.129 203.959,217.629 205.5,219C 214.16,219.5 222.827,219.666 231.5,219.5C 231.5,224.5 231.5,229.5 231.5,234.5C 230.514,230.03 230.181,225.363 230.5,220.5C 221.827,220.666 213.16,220.5 204.5,220C 202.536,218.549 201.203,216.716 200.5,214.5 Z"/></g>
<g><path style="opacity:1" fill="#e7eda1" d="M 201.5,214.5 C 203.544,215.031 205.211,216.198 206.5,218C 215.01,218.171 223.343,218.671 231.5,219.5C 222.827,219.666 214.16,219.5 205.5,219C 203.959,217.629 202.625,216.129 201.5,214.5 Z"/></g>
<g><path style="opacity:1" fill="#e8eda4" d="M 342.5,210.5 C 342.833,210.5 343.167,210.5 343.5,210.5C 341.56,217.924 339.394,225.258 337,232.5C 335.581,234.993 334.081,237.326 332.5,239.5C 335.438,229.686 338.771,220.019 342.5,210.5 Z"/></g>
<g><path style="opacity:1" fill="#fdfde7" d="M 341.5,205.5 C 342.167,205.5 342.833,205.5 343.5,205.5C 343.5,207.167 343.5,208.833 343.5,210.5C 343.167,210.5 342.833,210.5 342.5,210.5C 342.5,209.167 342.5,207.833 342.5,206.5C 329.784,206.205 317.117,206.538 304.5,207.5C 304.611,206.883 304.944,206.383 305.5,206C 317.495,205.5 329.495,205.333 341.5,205.5 Z"/></g>
<g><path style="opacity:1" fill="#e8ecac" d="M 206.5,204.5 C 214.833,204.5 223.167,204.5 231.5,204.5C 222.342,205.33 213.009,205.83 203.5,206C 201.686,208.481 201.02,211.315 201.5,214.5C 201.167,214.5 200.833,214.5 200.5,214.5C 200.167,214.5 199.833,214.5 199.5,214.5C 199.421,211.729 199.921,209.063 201,206.5C 202.444,204.845 204.278,204.178 206.5,204.5 Z"/></g>
<g><path style="opacity:1" fill="#f2f6c4" d="M 307.5,204.5 C 319.012,204.172 330.346,204.505 341.5,205.5C 329.495,205.333 317.495,205.5 305.5,206C 304.944,206.383 304.611,206.883 304.5,207.5C 304.167,207.5 303.833,207.5 303.5,207.5C 303.694,205.088 305.027,204.088 307.5,204.5 Z"/></g>
<g><path style="opacity:1" fill="#fbfce1" d="M 158.5,175.5 C 158.833,175.5 159.167,175.5 159.5,175.5C 159.688,181.199 159.355,186.866 158.5,192.5C 160.108,202.8 161.442,213.133 162.5,223.5C 161.459,219.082 160.125,214.749 158.5,210.5C 157.306,198.826 157.306,187.159 158.5,175.5 Z"/></g>
<g><path style="opacity:1" fill="#e5e99d" d="M 307.5,204.5 C 316.652,203.506 325.985,203.173 335.5,203.5C 337.857,203.337 340.19,203.503 342.5,204C 343.056,204.383 343.389,204.883 343.5,205.5C 342.833,205.5 342.167,205.5 341.5,205.5C 330.346,204.505 319.012,204.172 307.5,204.5 Z"/></g>
<g><path style="opacity:1" fill="#f7f8ce" d="M 230.5,182.5 C 231.491,189.313 231.825,196.313 231.5,203.5C 231.5,203.833 231.5,204.167 231.5,204.5C 223.167,204.5 214.833,204.5 206.5,204.5C 214.316,203.508 222.316,203.174 230.5,203.5C 230.5,199.5 230.5,195.5 230.5,191.5C 230.5,190.167 230.5,188.833 230.5,187.5C 230.5,185.833 230.5,184.167 230.5,182.5 Z"/></g>
<g><path style="opacity:1" fill="#dce27e" d="M 335.5,203.5 C 325.985,203.173 316.652,203.506 307.5,204.5C 305.027,204.088 303.694,205.088 303.5,207.5C 303.206,210.754 301.873,213.421 299.5,215.5C 300.246,211.715 301.413,208.048 303,204.5C 304.067,203.809 305.234,203.309 306.5,203C 316.342,202.175 326.009,202.342 335.5,203.5 Z"/></g>
<g><path style="opacity:1" fill="#fdfeed" d="M 230.5,191.5 C 230.5,195.5 230.5,199.5 230.5,203.5C 222.316,203.174 214.316,203.508 206.5,204.5C 204.278,204.178 202.444,204.845 201,206.5C 199.921,209.063 199.421,211.729 199.5,214.5C 197.812,210.592 198.478,207.092 201.5,204C 210.752,202.583 220.085,202.083 229.5,202.5C 229.664,199.813 229.497,197.146 229,194.5C 226.952,192.494 227.452,191.494 230.5,191.5 Z"/></g>
<g><path style="opacity:1" fill="#e6ec9e" d="M 158.5,175.5 C 157.306,187.159 157.306,198.826 158.5,210.5C 156.825,201.389 156.158,192.055 156.5,182.5C 156.927,179.99 157.593,177.657 158.5,175.5 Z"/></g>
<g><path style="opacity:1" fill="#fefef2" d="M 199.5,175.5 C 201.266,177.771 203.266,179.937 205.5,182C 213.827,182.5 222.16,182.666 230.5,182.5C 230.5,184.167 230.5,185.833 230.5,187.5C 223.108,190.214 222.774,189.38 229.5,185C 228.833,184.667 228.167,184.333 227.5,184C 219.833,183.667 212.167,183.333 204.5,183C 203.335,181.916 202.002,181.083 200.5,180.5C 199.548,178.955 199.215,177.288 199.5,175.5 Z"/></g>
<g><path style="opacity:1" fill="#dee28b" d="M 299.5,169.5 C 301.326,171.147 302.66,173.147 303.5,175.5C 303.227,177.451 303.893,178.951 305.5,180C 318.162,180.5 330.829,180.667 343.5,180.5C 343.5,180.833 343.5,181.167 343.5,181.5C 330.163,181.667 316.829,181.5 303.5,181C 302.027,177.219 300.693,173.385 299.5,169.5 Z"/></g>
<g><path style="opacity:1" fill="#e1e792" d="M 207.5,180.5 C 215.507,180.334 223.507,180.5 231.5,181C 232.827,188.598 232.827,196.098 231.5,203.5C 231.825,196.313 231.491,189.313 230.5,182.5C 222.833,181.833 215.167,181.167 207.5,180.5 Z"/></g>
<g><path style="opacity:1" fill="#f7f9c4" d="M 303.5,175.5 C 304.837,176.315 305.837,177.482 306.5,179C 318.495,179.5 330.495,179.667 342.5,179.5C 342.5,178.167 342.5,176.833 342.5,175.5C 343.451,176.919 343.784,178.585 343.5,180.5C 330.829,180.667 318.162,180.5 305.5,180C 303.893,178.951 303.227,177.451 303.5,175.5 Z"/></g>
<g><path style="opacity:1" fill="#fdfdea" d="M 294.5,162.5 C 297.736,163.899 300.57,165.899 303,168.5C 304.293,172.074 305.793,175.407 307.5,178.5C 318.833,178.5 330.167,178.5 341.5,178.5C 341.5,177.5 341.5,176.5 341.5,175.5C 341.833,175.5 342.167,175.5 342.5,175.5C 342.5,176.833 342.5,178.167 342.5,179.5C 330.495,179.667 318.495,179.5 306.5,179C 305.837,177.482 304.837,176.315 303.5,175.5C 302.66,173.147 301.326,171.147 299.5,169.5C 298.527,167.861 297.194,166.527 295.5,165.5C 295.443,164.391 295.11,163.391 294.5,162.5 Z"/></g>
<g><path style="opacity:1" fill="#edf1b5" d="M 337.5,156.5 C 338.315,157.429 339.148,158.429 340,159.5C 341.158,164.795 341.991,170.128 342.5,175.5C 342.167,175.5 341.833,175.5 341.5,175.5C 340.171,169.176 338.838,162.843 337.5,156.5 Z"/></g>
<g><path style="opacity:1" fill="#eaecaf" d="M 231.5,166.5 C 223.01,167.33 214.343,167.83 205.5,168C 199.719,173.354 200.386,177.52 207.5,180.5C 215.167,181.167 222.833,181.833 230.5,182.5C 222.16,182.666 213.827,182.5 205.5,182C 203.266,179.937 201.266,177.771 199.5,175.5C 199.26,171.568 200.927,168.734 204.5,167C 213.494,166.5 222.494,166.334 231.5,166.5 Z"/></g>
<g><path style="opacity:1" fill="#fcfddb" d="M 231.5,149.5 C 231.5,149.833 231.5,150.167 231.5,150.5C 231.5,155.5 231.5,160.5 231.5,165.5C 231.5,165.833 231.5,166.167 231.5,166.5C 222.494,166.334 213.494,166.5 204.5,167C 200.927,168.734 199.26,171.568 199.5,175.5C 198.378,173.712 198.211,171.712 199,169.5C 200.771,168.696 202.271,167.529 203.5,166C 212.494,165.5 221.494,165.334 230.5,165.5C 230.179,159.974 230.512,154.64 231.5,149.5 Z"/></g>
<g><path style="opacity:1" fill="#f2f5c7" d="M 167.5,151.5 C 165.284,159.691 162.617,167.691 159.5,175.5C 159.15,170.969 159.817,166.636 161.5,162.5C 162.752,158.398 164.752,154.732 167.5,151.5 Z"/></g>
<g><path style="opacity:1" fill="#e5eaa1" d="M 275.5,151.5 C 276.833,151.5 278.167,151.5 279.5,151.5C 280.29,152.794 281.29,153.961 282.5,155C 286.896,156.902 290.896,159.402 294.5,162.5C 295.11,163.391 295.443,164.391 295.5,165.5C 290.003,160.247 283.669,156.247 276.5,153.5C 276.167,152.833 275.833,152.167 275.5,151.5 Z"/></g>
<g><path style="opacity:1" fill="#fcfdee" d="M 329.5,143.5 C 330.385,146.06 332.051,148.06 334.5,149.5C 334.935,152.157 335.935,154.491 337.5,156.5C 338.838,162.843 340.171,169.176 341.5,175.5C 339.843,170.044 337.676,164.71 335,159.5C 334.505,157.527 334.338,155.527 334.5,153.5C 333.5,153.5 332.5,153.5 331.5,153.5C 330.626,150.211 329.959,146.877 329.5,143.5 Z"/></g>
<g><path style="opacity:1" fill="#fcfde4" d="M 279.5,151.5 C 283.152,152.805 286.819,154.139 290.5,155.5C 292.616,157.4 293.949,159.733 294.5,162.5C 290.896,159.402 286.896,156.902 282.5,155C 281.29,153.961 280.29,152.794 279.5,151.5 Z"/></g>
<g><path style="opacity:1" fill="#e6e9a5" d="M 334.5,149.5 C 336.25,150.659 337.25,152.326 337.5,154.5C 337.5,155.167 337.5,155.833 337.5,156.5C 335.935,154.491 334.935,152.157 334.5,149.5 Z"/></g>
<g><path style="opacity:1" fill="#dbe181" d="M 231.5,150.5 C 245.863,150.236 260.196,150.569 274.5,151.5C 274.833,151.5 275.167,151.5 275.5,151.5C 275.833,152.167 276.167,152.833 276.5,153.5C 274.199,152.94 271.866,152.44 269.5,152C 257.171,151.5 244.838,151.333 232.5,151.5C 232.819,156.363 232.486,161.03 231.5,165.5C 231.5,160.5 231.5,155.5 231.5,150.5 Z"/></g>
<g><path style="opacity:1" fill="#f0f2b1" d="M 231.5,150.5 C 231.5,150.167 231.5,149.833 231.5,149.5C 244.837,149.333 258.171,149.5 271.5,150C 272.737,150.232 273.737,150.732 274.5,151.5C 260.196,150.569 245.863,150.236 231.5,150.5 Z"/></g>
<g><path style="opacity:0.875" fill="#e5ea9b" d="M 359.5,223.5 C 358.479,230.554 356.479,237.221 353.5,243.5C 354.472,237.808 355.639,232.141 357,226.5C 357.377,225.058 358.21,224.058 359.5,223.5 Z"/></g>
<g><path style="opacity:1" fill="#fcfce5" d="M 281.5,232.5 C 280.859,233.482 280.193,234.482 279.5,235.5C 263.338,236.827 247.338,236.827 231.5,235.5C 246.504,235.667 261.504,235.5 276.5,235C 277.617,233.108 279.284,232.275 281.5,232.5 Z"/></g>
<g><path style="opacity:1" fill="#fbfce4" d="M 163.5,225.5 C 165.074,225.937 166.241,226.937 167,228.5C 167.893,227.289 168.726,227.289 169.5,228.5C 168.689,229.216 168.022,230.05 167.5,231C 169.121,235.076 171.121,238.909 173.5,242.5C 172.272,241.694 171.272,240.694 170.5,239.5C 167.674,235.182 165.341,230.516 163.5,225.5 Z"/></g>
<g><path style="opacity:1" fill="#e0e483" d="M 147.5,239.5 C 148.885,240.574 150.051,241.907 151,243.5C 151.49,242.207 151.657,240.873 151.5,239.5C 152.5,239.5 153.5,239.5 154.5,239.5C 153.942,242.344 153.275,245.178 152.5,248C 153.78,250.36 154.447,252.86 154.5,255.5C 151.655,250.469 149.322,245.136 147.5,239.5 Z"/></g>
<g><path style="opacity:1" fill="#e7eca9" d="M 331.5,239.5 C 331.851,242.812 330.518,245.145 327.5,246.5C 327.725,243.454 329.058,241.121 331.5,239.5 Z"/></g>
<g><path style="opacity:1" fill="#e9eca5" d="M 170.5,239.5 C 171.272,240.694 172.272,241.694 173.5,242.5C 175.761,247.36 178.761,251.693 182.5,255.5C 180.236,254.419 178.069,253.085 176,251.5C 174.76,248.588 173.094,245.921 171,243.5C 170.51,242.207 170.343,240.873 170.5,239.5 Z"/></g>
<g><path style="opacity:1" fill="#e1e692" d="M 327.5,246.5 C 327.657,247.873 327.49,249.207 327,250.5C 324.644,252.075 322.478,253.741 320.5,255.5C 323.126,252.698 325.46,249.698 327.5,246.5 Z"/></g>
<g><path style="opacity:1" fill="#e0e692" d="M 353.5,243.5 C 352.012,248.467 350.012,253.134 347.5,257.5C 347.37,251.774 349.37,247.108 353.5,243.5 Z"/></g>
<g><path style="opacity:1" fill="#fefeea" d="M 183.5,255.5 C 189.135,259.801 194.468,264.467 199.5,269.5C 198.833,269.5 198.167,269.5 197.5,269.5C 196.089,267.086 194.089,265.419 191.5,264.5C 188.833,261.5 186.167,258.5 183.5,255.5 Z"/></g>
<g><path style="opacity:1" fill="#eceeb3" d="M 182.5,255.5 C 182.833,255.5 183.167,255.5 183.5,255.5C 186.167,258.5 188.833,261.5 191.5,264.5C 187.5,262.5 184.5,259.5 182.5,255.5 Z"/></g>
<g><path style="opacity:0.945" fill="#e4e89c" d="M 154.5,255.5 C 156.448,257.32 157.448,259.654 157.5,262.5C 155.707,260.574 154.707,258.241 154.5,255.5 Z"/></g>
<g><path style="opacity:0.655" fill="#e6ea99" d="M 347.5,257.5 C 344.615,265.601 340.949,273.267 336.5,280.5C 338.863,272.11 342.53,264.443 347.5,257.5 Z"/></g>
<g><path style="opacity:1" fill="#dce170" d="M 156.5,182.5 C 156.158,192.055 156.825,201.389 158.5,210.5C 160.125,214.749 161.459,219.082 162.5,223.5C 163.338,223.842 163.672,224.508 163.5,225.5C 165.341,230.516 167.674,235.182 170.5,239.5C 170.343,240.873 170.51,242.207 171,243.5C 173.094,245.921 174.76,248.588 176,251.5C 178.069,253.085 180.236,254.419 182.5,255.5C 184.5,259.5 187.5,262.5 191.5,264.5C 192.911,266.914 194.911,268.581 197.5,269.5C 197.833,270.167 198.167,270.833 198.5,271.5C 195.86,270.555 193.194,270.388 190.5,271C 193.079,269.388 193.079,267.888 190.5,266.5C 187.556,268.789 184.556,270.789 181.5,272.5C 181.5,271.5 181.5,270.5 181.5,269.5C 180.167,269.5 178.833,269.5 177.5,269.5C 176.64,267.184 176.14,264.851 176,262.5C 177.402,260.367 179.235,258.7 181.5,257.5C 180.672,256.585 179.672,255.919 178.5,255.5C 177.158,257.005 175.492,257.672 173.5,257.5C 174.008,254.824 174.175,252.157 174,249.5C 169.957,253.294 169.124,252.628 171.5,247.5C 170.01,246.174 168.676,244.674 167.5,243C 168.668,241.129 168.168,239.629 166,238.5C 165.888,241.447 164.388,242.78 161.5,242.5C 161.716,238.196 162.05,233.863 162.5,229.5C 161.333,226.833 160.167,224.167 159,221.5C 158.555,214.453 156.889,207.786 154,201.5C 153.667,203.5 153.333,205.5 153,207.5C 151.43,204.367 151.097,201.033 152,197.5C 152.333,197.833 152.667,198.167 153,198.5C 153.308,197.692 153.808,197.025 154.5,196.5C 155.167,191.683 155.834,187.017 156.5,182.5 Z"/></g>
<g><path style="opacity:1" fill="#dee58f" d="M 320.5,255.5 C 317.812,260.188 314.145,263.855 309.5,266.5C 311.5,264.167 313.5,261.833 315.5,259.5C 317.179,258.084 318.846,256.75 320.5,255.5 Z"/></g>
<g><path style="opacity:1" fill="#f0f2b5" d="M 191.5,264.5 C 194.089,265.419 196.089,267.086 197.5,269.5C 194.911,268.581 192.911,266.914 191.5,264.5 Z"/></g>
<g><path style="opacity:1" fill="#f7f8d3" d="M 315.5,259.5 C 313.5,261.833 311.5,264.167 309.5,266.5C 305.684,269.107 301.684,271.44 297.5,273.5C 296.833,273.5 296.167,273.5 295.5,273.5C 297.036,270.908 299.369,269.908 302.5,270.5C 302.5,269.5 302.5,268.5 302.5,267.5C 303.552,267.649 304.552,267.483 305.5,267C 308.729,264.259 312.062,261.759 315.5,259.5 Z"/></g>
<g><path style="opacity:1" fill="#eaeeae" d="M 197.5,269.5 C 198.167,269.5 198.833,269.5 199.5,269.5C 203.931,272.712 208.598,275.378 213.5,277.5C 214.59,278.857 215.924,279.857 217.5,280.5C 210.523,278.841 204.19,275.841 198.5,271.5C 198.167,270.833 197.833,270.167 197.5,269.5 Z"/></g>
<g><path style="opacity:1" fill="#e4eaa2" d="M 295.5,273.5 C 296.167,273.5 296.833,273.5 297.5,273.5C 296.167,275.5 294.5,277.167 292.5,278.5C 290.435,278.517 288.435,278.85 286.5,279.5C 289.5,277.5 292.5,275.5 295.5,273.5 Z"/></g>
<g><path style="opacity:1" fill="#fbfbe0" d="M 213.5,277.5 C 216.127,278.105 218.793,278.605 221.5,279C 222.942,279.377 223.942,280.21 224.5,281.5C 223.167,281.5 221.833,281.5 220.5,281.5C 219.833,281.5 219.167,281.5 218.5,281.5C 218.5,280.833 218.167,280.5 217.5,280.5C 215.924,279.857 214.59,278.857 213.5,277.5 Z"/></g>
<g><path style="opacity:1" fill="#dce480" d="M 292.5,278.5 C 292.918,279.222 293.584,279.722 294.5,280C 288.012,280.443 281.679,281.61 275.5,283.5C 276.5,282.833 277.5,282.167 278.5,281.5C 281.004,280.361 283.67,279.694 286.5,279.5C 288.435,278.85 290.435,278.517 292.5,278.5 Z"/></g>
<g><path style="opacity:1" fill="#f0f5c0" d="M 220.5,281.5 C 221.833,281.5 223.167,281.5 224.5,281.5C 229.603,282.588 234.603,283.588 239.5,284.5C 239.5,284.833 239.5,285.167 239.5,285.5C 236.813,285.664 234.146,285.497 231.5,285C 227.687,284.077 224.021,282.91 220.5,281.5 Z"/></g>
<g><path style="opacity:1" fill="#fbfce3" d="M 278.5,281.5 C 277.5,282.167 276.5,282.833 275.5,283.5C 263.565,285.121 251.565,285.787 239.5,285.5C 239.5,285.167 239.5,284.833 239.5,284.5C 252.634,283.949 265.634,282.949 278.5,281.5 Z"/></g>
<g><path style="opacity:1" fill="#dee582" d="M 336.5,280.5 C 332.291,289.688 327.291,298.355 321.5,306.5C 320.833,306.833 320.167,307.167 319.5,307.5C 319.685,305.804 320.519,304.471 322,303.5C 322.495,301.527 322.662,299.527 322.5,297.5C 324.39,297.703 325.89,297.037 327,295.5C 327.744,292.129 327.244,288.963 325.5,286C 326,285.5 326.5,285 327,284.5C 328.388,285.554 329.888,285.72 331.5,285C 333.037,283.293 334.704,281.793 336.5,280.5 Z"/></g>
<g><path style="opacity:0.855" fill="#e5e99b" d="M 157.5,262.5 C 159.55,264.237 161.383,266.237 163,268.5C 163.333,270.167 163.667,271.833 164,273.5C 170.528,285.892 177.028,298.226 183.5,310.5C 173.636,295.262 164.969,279.262 157.5,262.5 Z"/></g>
<g><path style="opacity:1" fill="#dfe583" d="M 218.5,281.5 C 219.167,281.5 219.833,281.5 220.5,281.5C 224.021,282.91 227.687,284.077 231.5,285C 234.146,285.497 236.813,285.664 239.5,285.5C 251.565,285.787 263.565,285.121 275.5,283.5C 275.047,284.458 274.381,285.292 273.5,286C 265.961,287.857 258.294,288.69 250.5,288.5C 240.4,287.641 230.4,286.141 220.5,284C 219.244,283.583 218.577,282.75 218.5,281.5 Z"/></g>
<g><path style="opacity:1" fill="#e9eda6" d="M 321.5,306.5 C 316.494,316.521 310.494,325.854 303.5,334.5C 308.099,325 313.432,316 319.5,307.5C 320.167,307.167 320.833,306.833 321.5,306.5 Z"/></g>
<g><path style="opacity:1" fill="#e2e894" d="M 183.5,310.5 C 184.712,311.23 185.712,312.23 186.5,313.5C 187.425,312.359 188.259,312.359 189,313.5C 189.92,318.969 192.42,323.636 196.5,327.5C 197.246,328.736 197.579,330.07 197.5,331.5C 192.056,325.049 187.39,318.049 183.5,310.5 Z"/></g>
<g><path style="opacity:0.267" fill="#f5f6cc" d="M 303.5,334.5 C 302.308,337.562 300.808,340.562 299,343.5C 297.961,344.71 296.794,345.71 295.5,346.5C 293.469,347.539 292.136,349.205 291.5,351.5C 289.863,353.316 288.363,355.316 287,357.5C 285.223,359.79 283.056,361.457 280.5,362.5C 281.075,360.589 282.075,358.922 283.5,357.5C 289.534,349.143 296.201,341.476 303.5,334.5 Z"/></g>
<g><path style="opacity:0.012" fill="#fefef3" d="M 295.5,346.5 C 294.876,348.754 293.543,350.421 291.5,351.5C 292.136,349.205 293.469,347.539 295.5,346.5 Z"/></g>
<g><path style="opacity:0.984" fill="#dbe289" d="M 208.5,345.5 C 212.311,347.436 214.978,350.436 216.5,354.5C 213.139,352.105 210.472,349.105 208.5,345.5 Z"/></g>
<g><path style="opacity:1" fill="#dbe37e" d="M 283.5,357.5 C 282.075,358.922 281.075,360.589 280.5,362.5C 279.128,363.512 277.795,364.512 276.5,365.5C 275.222,365.782 274.222,366.449 273.5,367.5C 275.412,365.178 276.745,362.512 277.5,359.5C 278.5,359.5 279.5,359.5 280.5,359.5C 280.343,358.127 280.51,356.793 281,355.5C 281.417,356.756 282.25,357.423 283.5,357.5 Z"/></g>
<g><path style="opacity:0.918" fill="#e7e8a0" d="M 222.5,362.5 C 226.5,364.5 229.5,367.5 231.5,371.5C 228.167,368.833 225.167,365.833 222.5,362.5 Z"/></g>
<g><path style="opacity:0.031" fill="#fbfbde" d="M 280.5,362.5 C 279.581,365.089 277.914,367.089 275.5,368.5C 275.557,367.391 275.89,366.391 276.5,365.5C 277.795,364.512 279.128,363.512 280.5,362.5 Z"/></g>
<g><path style="opacity:0.243" fill="#f7f8d1" d="M 197.5,331.5 C 201.638,335.765 205.305,340.431 208.5,345.5C 210.472,349.105 213.139,352.105 216.5,354.5C 218.087,357.428 220.087,360.094 222.5,362.5C 225.167,365.833 228.167,368.833 231.5,371.5C 233.222,373.889 235.222,375.889 237.5,377.5C 240.446,379.111 243.113,381.111 245.5,383.5C 246.533,387.317 248.867,388.317 252.5,386.5C 260.274,380.712 267.274,374.379 273.5,367.5C 274.222,366.449 275.222,365.782 276.5,365.5C 275.89,366.391 275.557,367.391 275.5,368.5C 268.214,376.88 260.047,384.213 251,390.5C 230.892,375.061 213.559,357.061 199,336.5C 198.392,334.846 197.892,333.179 197.5,331.5 Z"/></g>
<g><path style="opacity:1" fill="#dee38e" d="M 237.5,377.5 C 241.568,377.562 244.235,379.562 245.5,383.5C 243.113,381.111 240.446,379.111 237.5,377.5 Z"/></g>
</svg>
