<?xml version="1.0" encoding="UTF-8"?>
<!DOCTYPE svg PUBLIC "-//W3C//DTD SVG 1.1//EN" "http://www.w3.org/Graphics/SVG/1.1/DTD/svg11.dtd">
<svg xmlns="http://www.w3.org/2000/svg" version="1.1" width="416px" height="416px" style="shape-rendering:geometricPrecision; text-rendering:geometricPrecision; image-rendering:optimizeQuality; fill-rule:evenodd; clip-rule:evenodd" xmlns:xlink="http://www.w3.org/1999/xlink">
<g><path style="opacity:1" fill="#88b966" d="M 251.5,78.5 C 244.649,75.7154 237.649,73.2154 230.5,71C 227.571,70.2228 224.737,70.3895 222,71.5C 220.795,70.9288 219.628,70.2621 218.5,69.5C 212.202,68.5037 205.868,68.1703 199.5,68.5C 195.548,69.2721 191.548,69.6054 187.5,69.5C 209.913,64.371 231.246,67.371 251.5,78.5 Z"/></g>
<g><path style="opacity:1" fill="#76b744" d="M 199.5,68.5 C 198.653,69.9663 197.32,70.7996 195.5,71C 196.38,72.3561 196.714,73.8561 196.5,75.5C 194.712,75.2148 193.045,75.5481 191.5,76.5C 196.802,77.3295 202.136,77.8295 207.5,78C 207.167,78.3333 206.833,78.6667 206.5,79C 202.007,79.1045 197.674,79.9379 193.5,81.5C 192.558,81.3918 191.725,81.0585 191,80.5C 188.389,81.0706 185.889,81.9039 183.5,83C 194.329,82.5485 204.996,82.7152 215.5,83.5C 209.158,83.3338 202.825,83.5005 196.5,84C 194.618,84.1981 192.952,84.6981 191.5,85.5C 182.577,86.9764 174.244,90.143 166.5,95C 160.67,99.3334 155.004,103.833 149.5,108.5C 148.504,108.586 147.671,108.252 147,107.5C 146.654,109.218 146.154,110.885 145.5,112.5C 144.635,113.583 143.635,113.749 142.5,113C 140.767,110.699 139.767,108.032 139.5,105C 138.354,104.241 137.354,103.574 136.5,103C 138.993,99.442 141.826,96.2754 145,93.5C 148.632,98.7299 149.799,98.0632 148.5,91.5C 149.092,89.5775 150.092,87.9108 151.5,86.5C 161.882,77.6448 173.882,71.9782 187.5,69.5C 191.548,69.6054 195.548,69.2721 199.5,68.5 Z"/></g>
<g><path style="opacity:1" fill="#fdfefc" d="M 223.5,85.5 C 229.296,86.6993 234.963,88.366 240.5,90.5C 241.167,91.1667 241.833,91.8333 242.5,92.5C 246.935,95.7567 251.268,99.2567 255.5,103C 256.448,103.483 257.448,103.649 258.5,103.5C 268.755,111.69 275.755,122.024 279.5,134.5C 279.253,137.587 278.253,140.42 276.5,143C 277.955,145.016 279.955,145.849 282.5,145.5C 282.5,146.833 282.5,148.167 282.5,149.5C 271.909,150.105 261.575,149.438 251.5,147.5C 247.213,140.213 241.546,134.213 234.5,129.5C 232.71,128.239 231.043,126.739 229.5,125C 216.66,124.173 203.993,124.34 191.5,125.5C 191.5,129.833 191.5,134.167 191.5,138.5C 183.16,138.334 174.827,138.5 166.5,139C 164.696,142.296 164.196,145.796 165,149.5C 166.011,150.337 167.178,150.67 168.5,150.5C 168.611,151.117 168.944,151.617 169.5,152C 176.492,152.5 183.492,152.666 190.5,152.5C 190.5,157.833 190.5,163.167 190.5,168.5C 183.492,168.334 176.492,168.5 169.5,169C 168.244,169.417 167.577,170.25 167.5,171.5C 166.445,174.073 166.278,176.739 167,179.5C 167.816,180.823 168.983,181.489 170.5,181.5C 177.313,182.491 184.313,182.825 191.5,182.5C 191.5,186.833 191.5,191.167 191.5,195.5C 202.167,195.5 212.833,195.5 223.5,195.5C 227.509,195.142 231.509,194.642 235.5,194C 236.883,192.729 237.883,191.229 238.5,189.5C 240.698,188.986 242.698,187.986 244.5,186.5C 245.429,185.311 245.762,183.978 245.5,182.5C 245.833,181.5 246.5,180.833 247.5,180.5C 250.722,179.397 252.389,177.064 252.5,173.5C 262.144,172.502 271.81,172.168 281.5,172.5C 280.756,176.119 280.423,179.785 280.5,183.5C 280.397,186.636 279.397,189.302 277.5,191.5C 272.624,193.906 270.291,197.906 270.5,203.5C 269.167,203.5 267.833,203.5 266.5,203.5C 265.555,207.339 264.221,211.005 262.5,214.5C 261.127,214.343 259.793,214.51 258.5,215C 255.458,217.842 252.458,220.676 249.5,223.5C 248.271,224.281 246.938,224.781 245.5,225C 244.748,225.671 244.414,226.504 244.5,227.5C 240.776,230.639 236.443,232.639 231.5,233.5C 223.88,234.779 216.214,235.779 208.5,236.5C 200.083,235.959 191.75,234.959 183.5,233.5C 177.14,232.152 171.473,229.485 166.5,225.5C 164.85,222.683 162.683,220.35 160,218.5C 159.667,218.833 159.333,219.167 159,219.5C 157.223,217.21 155.056,215.543 152.5,214.5C 151.021,211.542 149.521,208.542 148,205.5C 144.744,203.318 142.744,200.318 142,196.5C 140.483,194.76 138.983,193.094 137.5,191.5C 134.119,185.347 132.119,178.681 131.5,171.5C 131.334,164.492 131.5,157.492 132,150.5C 133.933,143.198 135.767,135.865 137.5,128.5C 137.5,127.833 137.5,127.167 137.5,126.5C 141.497,120.508 145.497,114.508 149.5,108.5C 155.004,103.833 160.67,99.3334 166.5,95C 174.244,90.143 182.577,86.9764 191.5,85.5C 197.822,84.723 204.155,84.5563 210.5,85C 209.062,85.2189 207.729,85.7189 206.5,86.5C 208.187,87.568 209.854,87.4014 211.5,86C 215.486,85.5012 219.486,85.3345 223.5,85.5 Z"/></g>
<g><path style="opacity:1" fill="#edf9dc" d="M 215.5,83.5 C 218.33,83.9628 220.997,84.6295 223.5,85.5C 219.486,85.3345 215.486,85.5012 211.5,86C 209.854,87.4014 208.187,87.568 206.5,86.5C 207.729,85.7189 209.062,85.2189 210.5,85C 204.155,84.5563 197.822,84.723 191.5,85.5C 192.952,84.6981 194.618,84.1981 196.5,84C 202.825,83.5005 209.158,83.3338 215.5,83.5 Z"/></g>
<g><path style="opacity:1" fill="#7ab64d" d="M 251.5,78.5 C 258.814,81.9697 265.48,86.4697 271.5,92C 275.211,95.9538 278.544,100.121 281.5,104.5C 279.852,103.19 278.186,101.857 276.5,100.5C 275.808,101.025 275.308,101.692 275,102.5C 273.957,100.299 273.123,97.9661 272.5,95.5C 270.045,94.0714 267.545,92.7381 265,91.5C 261.336,92.7186 258.836,91.3853 257.5,87.5C 257.667,86.8333 257.833,86.1667 258,85.5C 258.654,86.6956 259.154,86.6956 259.5,85.5C 257.254,83.2369 254.587,81.9036 251.5,81.5C 251.5,80.5 251.5,79.5 251.5,78.5 Z"/></g>
<g><path style="opacity:1" fill="#7ab54a" d="M 240.5,90.5 C 242.199,90.3398 243.866,90.5065 245.5,91C 250.204,95.1995 255.537,98.3661 261.5,100.5C 261.296,99.4706 261.796,98.4706 263,97.5C 264.5,99.6667 266.333,101.5 268.5,103C 268.043,103.414 267.709,103.914 267.5,104.5C 268.274,105.711 269.107,105.711 270,104.5C 270.048,106.544 269.548,108.544 268.5,110.5C 269.562,113.73 271.729,115.73 275,116.5C 275.422,120.009 276.422,123.343 278,126.5C 279.011,127.337 280.178,127.67 281.5,127.5C 281.329,130.797 281.995,131.131 283.5,128.5C 281.337,126.227 281.171,123.893 283,121.5C 283.151,124.119 283.985,126.453 285.5,128.5C 283.987,130.535 283.321,132.869 283.5,135.5C 284.56,140.999 284.56,146.333 283.5,151.5C 283.771,145.343 282.438,139.677 279.5,134.5C 275.755,122.024 268.755,111.69 258.5,103.5C 254.218,98.3549 248.885,94.6882 242.5,92.5C 241.833,91.8333 241.167,91.1667 240.5,90.5 Z"/></g>
<g><path style="opacity:1" fill="#edfcde" d="M 242.5,92.5 C 248.885,94.6882 254.218,98.3549 258.5,103.5C 257.448,103.649 256.448,103.483 255.5,103C 251.268,99.2567 246.935,95.7567 242.5,92.5 Z"/></g>
<g><path style="opacity:1" fill="#7ab54c" d="M 151.5,86.5 C 150.092,87.9108 149.092,89.5775 148.5,91.5C 149.799,98.0632 148.632,98.7299 145,93.5C 141.826,96.2754 138.993,99.442 136.5,103C 137.354,103.574 138.354,104.241 139.5,105C 139.767,108.032 140.767,110.699 142.5,113C 143.635,113.749 144.635,113.583 145.5,112.5C 146.154,110.885 146.654,109.218 147,107.5C 147.671,108.252 148.504,108.586 149.5,108.5C 145.497,114.508 141.497,120.508 137.5,126.5C 137.915,124.253 138.582,122.086 139.5,120C 138.433,115.37 136.767,111.037 134.5,107C 133.551,106.383 132.718,106.549 132,107.5C 131.667,108.833 131.333,110.167 131,111.5C 129.257,114.297 127.09,116.63 124.5,118.5C 127.981,110.877 132.481,103.877 138,97.5C 141.813,92.8397 146.313,89.173 151.5,86.5 Z"/></g>
<g><path style="opacity:1" fill="#7db450" d="M 281.5,104.5 C 287.616,111.055 291.949,118.721 294.5,127.5C 291.655,125.002 289.655,121.836 288.5,118C 287.584,117.626 286.75,117.126 286,116.5C 285.71,118.044 285.044,119.377 284,120.5C 283.318,118.062 283.818,115.895 285.5,114C 284.25,110.734 282.916,107.568 281.5,104.5 Z"/></g>
<g><path style="opacity:0.932" fill="#83b65d" d="M 294.5,127.5 C 301.831,146.346 302.998,165.679 298,185.5C 296.364,193.245 293.864,200.578 290.5,207.5C 293.21,198.348 295.544,189.015 297.5,179.5C 298.316,171.345 298.983,163.178 299.5,155C 297.829,145.818 296.163,136.651 294.5,127.5 Z"/></g>
<g><path style="opacity:1" fill="#89b766" d="M 116.5,140.5 C 115.706,151.815 115.373,163.148 115.5,174.5C 113.005,163.11 113.338,151.776 116.5,140.5 Z"/></g>
<g><path style="opacity:0.784" fill="#87b664" d="M 115.5,177.5 C 117.922,182.835 119.588,188.502 120.5,194.5C 118.077,189.16 116.411,183.493 115.5,177.5 Z"/></g>
<g><path style="opacity:1" fill="#75b842" d="M 199.5,68.5 C 205.868,68.1703 212.202,68.5037 218.5,69.5C 219.628,70.2621 220.795,70.9288 222,71.5C 224.737,70.3895 227.571,70.2228 230.5,71C 237.649,73.2154 244.649,75.7154 251.5,78.5C 251.5,79.5 251.5,80.5 251.5,81.5C 254.587,81.9036 257.254,83.2369 259.5,85.5C 259.154,86.6956 258.654,86.6956 258,85.5C 257.833,86.1667 257.667,86.8333 257.5,87.5C 258.836,91.3853 261.336,92.7186 265,91.5C 267.545,92.7381 270.045,94.0714 272.5,95.5C 273.123,97.9661 273.957,100.299 275,102.5C 275.308,101.692 275.808,101.025 276.5,100.5C 278.186,101.857 279.852,103.19 281.5,104.5C 282.916,107.568 284.25,110.734 285.5,114C 283.818,115.895 283.318,118.062 284,120.5C 285.044,119.377 285.71,118.044 286,116.5C 286.75,117.126 287.584,117.626 288.5,118C 289.655,121.836 291.655,125.002 294.5,127.5C 296.163,136.651 297.829,145.818 299.5,155C 298.983,163.178 298.316,171.345 297.5,179.5C 295.544,189.015 293.21,198.348 290.5,207.5C 290.5,207.833 290.5,208.167 290.5,208.5C 289.624,208.369 288.957,208.702 288.5,209.5C 286.214,214.046 284.547,218.713 283.5,223.5C 283.5,223.833 283.5,224.167 283.5,224.5C 280.58,226.662 278.913,229.662 278.5,233.5C 272.955,244.694 266.622,255.36 259.5,265.5C 255.849,265.162 254.183,266.828 254.5,270.5C 253.5,270.5 252.5,270.5 251.5,270.5C 251.719,271.675 251.386,272.675 250.5,273.5C 247.938,274.962 245.605,275.962 243.5,276.5C 244.5,277.167 245.5,277.833 246.5,278.5C 245.833,278.833 245.167,279.167 244.5,279.5C 244.709,280.086 245.043,280.586 245.5,281C 243.845,282.444 243.178,284.278 243.5,286.5C 242.127,286.343 240.793,286.51 239.5,287C 240.602,290.06 239.602,290.893 236.5,289.5C 235.526,291.743 235.192,294.076 235.5,296.5C 233.5,299.167 231.167,301.5 228.5,303.5C 226.264,304.389 224.264,305.722 222.5,307.5C 221.158,306.098 220.324,306.431 220,308.5C 216.89,307.327 216.723,307.827 219.5,310C 218.328,310.353 217.162,310.187 216,309.5C 212.557,310.864 212.724,311.531 216.5,311.5C 216.5,312.5 216.5,313.5 216.5,314.5C 212.019,313.963 210.686,315.63 212.5,319.5C 212.167,319.5 211.833,319.5 211.5,319.5C 210.244,319.096 209.077,318.429 208,317.5C 206.699,318.893 205.199,319.393 203.5,319C 200.899,315.888 197.899,313.388 194.5,311.5C 191.5,309.167 188.833,306.5 186.5,303.5C 188.317,301.988 189.317,299.988 189.5,297.5C 188.448,297.649 187.448,297.483 186.5,297C 186.833,296.667 187.167,296.333 187.5,296C 183.65,292.685 182.984,293.185 185.5,297.5C 183.157,298.725 181.323,298.059 180,295.5C 179.506,293.866 179.34,292.199 179.5,290.5C 178.167,290.5 176.833,290.5 175.5,290.5C 175.672,288.508 175.005,286.842 173.5,285.5C 176.243,283.302 176.077,281.302 173,279.5C 172.51,278.207 172.343,276.873 172.5,275.5C 170.857,275.52 169.524,274.853 168.5,273.5C 167.5,274.167 166.5,274.833 165.5,275.5C 163.5,272.833 161.5,270.167 159.5,267.5C 158.583,266.873 157.583,266.539 156.5,266.5C 154.902,264.302 153.569,261.969 152.5,259.5C 151.943,255.427 149.943,252.427 146.5,250.5C 146.5,250.167 146.5,249.833 146.5,249.5C 145.326,246.116 143.826,242.782 142,239.5C 141.506,237.866 141.34,236.199 141.5,234.5C 140.5,234.5 139.5,234.5 138.5,234.5C 138.5,233.167 138.5,231.833 138.5,230.5C 137.5,230.5 136.5,230.5 135.5,230.5C 128.937,219.142 123.937,207.142 120.5,194.5C 119.588,188.502 117.922,182.835 115.5,177.5C 115.5,176.5 115.5,175.5 115.5,174.5C 115.373,163.148 115.706,151.815 116.5,140.5C 117.517,132.485 120.183,125.152 124.5,118.5C 127.09,116.63 129.257,114.297 131,111.5C 131.333,110.167 131.667,108.833 132,107.5C 132.718,106.549 133.551,106.383 134.5,107C 136.767,111.037 138.433,115.37 139.5,120C 138.582,122.086 137.915,124.253 137.5,126.5C 137.5,127.167 137.5,127.833 137.5,128.5C 133.792,135.645 131.459,143.312 130.5,151.5C 129.344,159.323 129.177,167.323 130,175.5C 132.055,181.743 133.722,188.076 135,194.5C 138.143,198.09 140.643,202.09 142.5,206.5C 141.061,208.343 141.228,210.01 143,211.5C 144.284,210.428 144.617,209.095 144,207.5C 145.371,209.041 146.871,210.375 148.5,211.5C 149.833,212.5 151.167,213.5 152.5,214.5C 156.432,219.129 161.099,222.796 166.5,225.5C 171.473,229.485 177.14,232.152 183.5,233.5C 183.5,233.833 183.5,234.167 183.5,234.5C 184.429,235.315 185.429,236.148 186.5,237C 186.167,237.333 185.833,237.667 185.5,238C 197.833,238.667 210.167,238.667 222.5,238C 223.056,237.617 223.389,237.117 223.5,236.5C 226.167,235.5 228.833,234.5 231.5,233.5C 236.443,232.639 240.776,230.639 244.5,227.5C 251.623,224.709 257.623,220.375 262.5,214.5C 264.605,211.973 266.939,209.64 269.5,207.5C 271.606,207.321 273.272,206.321 274.5,204.5C 278.332,196.135 281.499,187.468 284,178.5C 284.801,175.633 284.634,172.966 283.5,170.5C 272.813,170.168 262.146,170.501 251.5,171.5C 250.412,174.67 249.079,177.67 247.5,180.5C 246.5,180.833 245.833,181.5 245.5,182.5C 242.833,184.5 240.5,186.833 238.5,189.5C 233.787,192.023 228.787,193.689 223.5,194.5C 213.167,194.5 202.833,194.5 192.5,194.5C 192.818,189.968 192.485,185.634 191.5,181.5C 184.345,180.671 177.011,180.171 169.5,180C 167.352,177.925 167.018,175.592 168.5,173C 176.565,173.139 184.232,172.305 191.5,170.5C 191.5,164.167 191.5,157.833 191.5,151.5C 190.666,150.252 189.333,149.585 187.5,149.5C 181.845,148.873 176.179,148.373 170.5,148C 168.006,145.756 168.006,143.423 170.5,141C 177.679,140.829 184.679,140.329 191.5,139.5C 192.485,135.366 192.818,131.032 192.5,126.5C 202.833,126.5 213.167,126.5 223.5,126.5C 227.223,127.297 230.89,128.297 234.5,129.5C 241.546,134.213 247.213,140.213 251.5,147.5C 251.33,148.822 251.663,149.989 252.5,151C 262.828,151.5 273.161,151.666 283.5,151.5C 284.56,146.333 284.56,140.999 283.5,135.5C 283.321,132.869 283.987,130.535 285.5,128.5C 283.985,126.453 283.151,124.119 283,121.5C 281.171,123.893 281.337,126.227 283.5,128.5C 281.995,131.131 281.329,130.797 281.5,127.5C 280.178,127.67 279.011,127.337 278,126.5C 276.422,123.343 275.422,120.009 275,116.5C 271.729,115.73 269.562,113.73 268.5,110.5C 269.548,108.544 270.048,106.544 270,104.5C 269.107,105.711 268.274,105.711 267.5,104.5C 267.709,103.914 268.043,103.414 268.5,103C 266.333,101.5 264.5,99.6667 263,97.5C 261.796,98.4706 261.296,99.4706 261.5,100.5C 255.537,98.3661 250.204,95.1995 245.5,91C 243.866,90.5065 242.199,90.3398 240.5,90.5C 234.963,88.366 229.296,86.6993 223.5,85.5C 220.997,84.6295 218.33,83.9628 215.5,83.5C 204.996,82.7152 194.329,82.5485 183.5,83C 185.889,81.9039 188.389,81.0706 191,80.5C 191.725,81.0585 192.558,81.3918 193.5,81.5C 197.674,79.9379 202.007,79.1045 206.5,79C 206.833,78.6667 207.167,78.3333 207.5,78C 202.136,77.8295 196.802,77.3295 191.5,76.5C 193.045,75.5481 194.712,75.2148 196.5,75.5C 196.714,73.8561 196.38,72.3561 195.5,71C 197.32,70.7996 198.653,69.9663 199.5,68.5 Z"/></g>
<g><path style="opacity:1" fill="#eefbe0" d="M 137.5,191.5 C 138.983,193.094 140.483,194.76 142,196.5C 142.744,200.318 144.744,203.318 148,205.5C 149.521,208.542 151.021,211.542 152.5,214.5C 151.167,213.5 149.833,212.5 148.5,211.5C 145.687,207.224 142.854,202.89 140,198.5C 138.882,196.235 138.049,193.901 137.5,191.5 Z"/></g>
<g><path style="opacity:1" fill="#7bb44e" d="M 283.5,170.5 C 284.634,172.966 284.801,175.633 284,178.5C 281.499,187.468 278.332,196.135 274.5,204.5C 273.272,206.321 271.606,207.321 269.5,207.5C 272.715,202.403 275.382,197.07 277.5,191.5C 279.397,189.302 280.397,186.636 280.5,183.5C 282.489,179.503 283.489,175.17 283.5,170.5 Z"/></g>
<g><path style="opacity:1" fill="#f2fce4" d="M 277.5,191.5 C 275.382,197.07 272.715,202.403 269.5,207.5C 266.939,209.64 264.605,211.973 262.5,214.5C 264.221,211.005 265.555,207.339 266.5,203.5C 267.833,203.5 269.167,203.5 270.5,203.5C 270.291,197.906 272.624,193.906 277.5,191.5 Z"/></g>
<g><path style="opacity:1" fill="#85b761" d="M 170.5,181.5 C 177.5,181.5 184.5,181.5 191.5,181.5C 192.485,185.634 192.818,189.968 192.5,194.5C 202.833,194.5 213.167,194.5 223.5,194.5C 223.5,194.833 223.5,195.167 223.5,195.5C 212.833,195.5 202.167,195.5 191.5,195.5C 191.5,191.167 191.5,186.833 191.5,182.5C 184.313,182.825 177.313,182.491 170.5,181.5 Z"/></g>
<g><path style="opacity:1" fill="#edfbe1" d="M 238.5,189.5 C 237.883,191.229 236.883,192.729 235.5,194C 231.509,194.642 227.509,195.142 223.5,195.5C 223.5,195.167 223.5,194.833 223.5,194.5C 228.787,193.689 233.787,192.023 238.5,189.5 Z"/></g>
<g><path style="opacity:1" fill="#7db250" d="M 130.5,151.5 C 130.176,158.354 130.509,165.021 131.5,171.5C 132.119,178.681 134.119,185.347 137.5,191.5C 138.049,193.901 138.882,196.235 140,198.5C 142.854,202.89 145.687,207.224 148.5,211.5C 146.871,210.375 145.371,209.041 144,207.5C 144.617,209.095 144.284,210.428 143,211.5C 141.228,210.01 141.061,208.343 142.5,206.5C 140.643,202.09 138.143,198.09 135,194.5C 133.722,188.076 132.055,181.743 130,175.5C 129.177,167.323 129.344,159.323 130.5,151.5 Z"/></g>
<g><path style="opacity:1" fill="#ebfbdb" d="M 245.5,182.5 C 245.762,183.978 245.429,185.311 244.5,186.5C 242.698,187.986 240.698,188.986 238.5,189.5C 240.5,186.833 242.833,184.5 245.5,182.5 Z"/></g>
<g><path style="opacity:1" fill="#77ac4d" d="M 191.5,170.5 C 184.232,172.305 176.565,173.139 168.5,173C 167.018,175.592 167.352,177.925 169.5,180C 177.011,180.171 184.345,180.671 191.5,181.5C 184.5,181.5 177.5,181.5 170.5,181.5C 168.983,181.489 167.816,180.823 167,179.5C 166.278,176.739 166.445,174.073 167.5,171.5C 175.445,170.563 183.445,170.23 191.5,170.5 Z"/></g>
<g><path style="opacity:1" fill="#f7feea" d="M 283.5,170.5 C 283.489,175.17 282.489,179.503 280.5,183.5C 280.423,179.785 280.756,176.119 281.5,172.5C 271.81,172.168 262.144,172.502 252.5,173.5C 252.389,177.064 250.722,179.397 247.5,180.5C 249.079,177.67 250.412,174.67 251.5,171.5C 262.146,170.501 272.813,170.168 283.5,170.5 Z"/></g>
<g><path style="opacity:1" fill="#f4fee5" d="M 168.5,150.5 C 176.111,151.434 183.778,151.767 191.5,151.5C 191.5,157.833 191.5,164.167 191.5,170.5C 183.445,170.23 175.445,170.563 167.5,171.5C 167.577,170.25 168.244,169.417 169.5,169C 176.492,168.5 183.492,168.334 190.5,168.5C 190.5,163.167 190.5,157.833 190.5,152.5C 183.492,152.666 176.492,152.5 169.5,152C 168.944,151.617 168.611,151.117 168.5,150.5 Z"/></g>
<g><path style="opacity:1" fill="#e9f6dc" d="M 279.5,134.5 C 282.438,139.677 283.771,145.343 283.5,151.5C 273.161,151.666 262.828,151.5 252.5,151C 251.663,149.989 251.33,148.822 251.5,147.5C 261.575,149.438 271.909,150.105 282.5,149.5C 282.5,148.167 282.5,146.833 282.5,145.5C 279.955,145.849 277.955,145.016 276.5,143C 278.253,140.42 279.253,137.587 279.5,134.5 Z"/></g>
<g><path style="opacity:1" fill="#81b659" d="M 191.5,139.5 C 184.679,140.329 177.679,140.829 170.5,141C 168.006,143.423 168.006,145.756 170.5,148C 176.179,148.373 181.845,148.873 187.5,149.5C 189.333,149.585 190.666,150.252 191.5,151.5C 183.778,151.767 176.111,151.434 168.5,150.5C 165.88,146.998 165.88,143.498 168.5,140C 176.159,139.5 183.826,139.334 191.5,139.5 Z"/></g>
<g><path style="opacity:1" fill="#e5f9d5" d="M 137.5,128.5 C 135.767,135.865 133.933,143.198 132,150.5C 131.5,157.492 131.334,164.492 131.5,171.5C 130.509,165.021 130.176,158.354 130.5,151.5C 131.459,143.312 133.792,135.645 137.5,128.5 Z"/></g>
<g><path style="opacity:1" fill="#ecfadd" d="M 191.5,138.5 C 191.5,138.833 191.5,139.167 191.5,139.5C 183.826,139.334 176.159,139.5 168.5,140C 165.88,143.498 165.88,146.998 168.5,150.5C 167.178,150.67 166.011,150.337 165,149.5C 164.196,145.796 164.696,142.296 166.5,139C 174.827,138.5 183.16,138.334 191.5,138.5 Z"/></g>
<g><path style="opacity:1" fill="#82b35b" d="M 191.5,125.5 C 202.346,125.172 213.013,125.506 223.5,126.5C 213.167,126.5 202.833,126.5 192.5,126.5C 192.818,131.032 192.485,135.366 191.5,139.5C 191.5,139.167 191.5,138.833 191.5,138.5C 191.5,134.167 191.5,129.833 191.5,125.5 Z"/></g>
<g><path style="opacity:1" fill="#f4fee7" d="M 191.5,125.5 C 203.993,124.34 216.66,124.173 229.5,125C 231.043,126.739 232.71,128.239 234.5,129.5C 230.89,128.297 227.223,127.297 223.5,126.5C 213.013,125.506 202.346,125.172 191.5,125.5 Z"/></g>
<g><path style="opacity:1" fill="#effbe3" d="M 262.5,214.5 C 257.623,220.375 251.623,224.709 244.5,227.5C 244.414,226.504 244.748,225.671 245.5,225C 246.938,224.781 248.271,224.281 249.5,223.5C 252.458,220.676 255.458,217.842 258.5,215C 259.793,214.51 261.127,214.343 262.5,214.5 Z"/></g>
<g><path style="opacity:0.851" fill="#88b563" d="M 290.5,208.5 C 288.406,213.685 286.072,218.685 283.5,223.5C 284.547,218.713 286.214,214.046 288.5,209.5C 288.957,208.702 289.624,208.369 290.5,208.5 Z"/></g>
<g><path style="opacity:1" fill="#e9fada" d="M 152.5,214.5 C 155.056,215.543 157.223,217.21 159,219.5C 159.333,219.167 159.667,218.833 160,218.5C 162.683,220.35 164.85,222.683 166.5,225.5C 161.099,222.796 156.432,219.129 152.5,214.5 Z"/></g>
<g><path style="opacity:0.49" fill="#96ba76" d="M 283.5,224.5 C 282.071,227.696 280.405,230.696 278.5,233.5C 278.913,229.662 280.58,226.662 283.5,224.5 Z"/></g>
<g><path style="opacity:1" fill="#f1fee7" d="M 183.5,234.5 C 183.5,234.167 183.5,233.833 183.5,233.5C 191.75,234.959 200.083,235.959 208.5,236.5C 216.214,235.779 223.88,234.779 231.5,233.5C 228.833,234.5 226.167,235.5 223.5,236.5C 210.017,238.334 196.683,237.668 183.5,234.5 Z"/></g>
<g><path style="opacity:1" fill="#7eb455" d="M 183.5,234.5 C 196.683,237.668 210.017,238.334 223.5,236.5C 223.389,237.117 223.056,237.617 222.5,238C 210.167,238.667 197.833,238.667 185.5,238C 185.833,237.667 186.167,237.333 186.5,237C 185.429,236.148 184.429,235.315 183.5,234.5 Z"/></g>
<g><path style="opacity:1" fill="#84b65c" d="M 135.5,230.5 C 136.5,230.5 137.5,230.5 138.5,230.5C 138.5,231.833 138.5,233.167 138.5,234.5C 139.5,234.5 140.5,234.5 141.5,234.5C 141.34,236.199 141.506,237.866 142,239.5C 143.826,242.782 145.326,246.116 146.5,249.5C 142.47,243.447 138.803,237.114 135.5,230.5 Z"/></g>
<g><path style="opacity:0.988" fill="#85b45e" d="M 146.5,250.5 C 149.943,252.427 151.943,255.427 152.5,259.5C 150.265,256.709 148.265,253.709 146.5,250.5 Z"/></g>
<g><path style="opacity:1" fill="#7bb64e" d="M 259.5,265.5 C 252.698,276.776 244.698,287.109 235.5,296.5C 235.192,294.076 235.526,291.743 236.5,289.5C 239.602,290.893 240.602,290.06 239.5,287C 240.793,286.51 242.127,286.343 243.5,286.5C 243.178,284.278 243.845,282.444 245.5,281C 245.043,280.586 244.709,280.086 244.5,279.5C 245.167,279.167 245.833,278.833 246.5,278.5C 245.5,277.833 244.5,277.167 243.5,276.5C 245.605,275.962 247.938,274.962 250.5,273.5C 251.386,272.675 251.719,271.675 251.5,270.5C 252.5,270.5 253.5,270.5 254.5,270.5C 254.183,266.828 255.849,265.162 259.5,265.5 Z"/></g>
<g><path style="opacity:1" fill="#7ab74c" d="M 156.5,266.5 C 157.583,266.539 158.583,266.873 159.5,267.5C 161.5,270.167 163.5,272.833 165.5,275.5C 166.5,274.833 167.5,274.167 168.5,273.5C 169.524,274.853 170.857,275.52 172.5,275.5C 172.343,276.873 172.51,278.207 173,279.5C 176.077,281.302 176.243,283.302 173.5,285.5C 175.005,286.842 175.672,288.508 175.5,290.5C 176.833,290.5 178.167,290.5 179.5,290.5C 179.34,292.199 179.506,293.866 180,295.5C 181.323,298.059 183.157,298.725 185.5,297.5C 182.984,293.185 183.65,292.685 187.5,296C 187.167,296.333 186.833,296.667 186.5,297C 187.448,297.483 188.448,297.649 189.5,297.5C 189.317,299.988 188.317,301.988 186.5,303.5C 175.015,292.35 165.015,280.017 156.5,266.5 Z"/></g>
<g><path style="opacity:1" fill="#83ba5a" d="M 228.5,303.5 C 223.725,309.255 218.392,314.588 212.5,319.5C 210.686,315.63 212.019,313.963 216.5,314.5C 216.5,313.5 216.5,312.5 216.5,311.5C 212.724,311.531 212.557,310.864 216,309.5C 217.162,310.187 218.328,310.353 219.5,310C 216.723,307.827 216.89,307.327 220,308.5C 220.324,306.431 221.158,306.098 222.5,307.5C 224.264,305.722 226.264,304.389 228.5,303.5 Z"/></g>
<g><path style="opacity:1" fill="#7eb556" d="M 194.5,311.5 C 197.899,313.388 200.899,315.888 203.5,319C 205.199,319.393 206.699,318.893 208,317.5C 209.077,318.429 210.244,319.096 211.5,319.5C 210.294,322.139 208.294,322.972 205.5,322C 201.332,318.998 197.665,315.498 194.5,311.5 Z"/></g>
</svg>
