<?xml version="1.0" encoding="UTF-8"?>
<!DOCTYPE svg PUBLIC "-//W3C//DTD SVG 1.1//EN" "http://www.w3.org/Graphics/SVG/1.1/DTD/svg11.dtd">
<svg xmlns="http://www.w3.org/2000/svg" version="1.1" width="416px" height="416px" style="shape-rendering:geometricPrecision; text-rendering:geometricPrecision; image-rendering:optimizeQuality; fill-rule:evenodd; clip-rule:evenodd" xmlns:xlink="http://www.w3.org/1999/xlink">
<g><path style="opacity:1" fill="#5daacc" d="M 229.5,70.5 C 213.469,70.1762 197.469,70.6762 181.5,72C 177.126,75.4683 172.126,77.8017 166.5,79C 165.149,80.6171 163.482,81.7838 161.5,82.5C 162.879,83.8626 162.713,84.8626 161,85.5C 159,84.1667 157,84.1667 155,85.5C 148.586,91.7546 141.752,97.4213 134.5,102.5C 159.663,72.6677 191.33,62.001 229.5,70.5 Z"/></g>
<g><path style="opacity:0.502" fill="#72b2c8" d="M 229.5,70.5 C 239.357,72.2685 248.357,75.9351 256.5,81.5C 251.512,79.5032 246.512,77.5032 241.5,75.5C 237.081,74.5898 233.081,72.9232 229.5,70.5 Z"/></g>
<g><path style="opacity:1" fill="#3fa9dd" d="M 241.5,75.5 C 246.512,77.5032 251.512,79.5032 256.5,81.5C 260.238,83.697 263.571,86.3637 266.5,89.5C 266.5,90.1667 266.5,90.8333 266.5,91.5C 264.958,90.6993 263.292,90.366 261.5,90.5C 261.5,89.5 261.5,88.5 261.5,87.5C 260.022,87.238 258.689,87.5713 257.5,88.5C 259.806,90.1394 261.806,92.1394 263.5,94.5C 261.525,95.5779 259.692,95.2446 258,93.5C 256.331,91.8309 255.498,89.8309 255.5,87.5C 252.795,87.3802 252.128,88.3802 253.5,90.5C 252.833,90.8333 252.167,91.1667 251.5,91.5C 246.637,88.2368 241.637,85.2368 236.5,82.5C 239.428,81.5159 242.428,81.1826 245.5,81.5C 245.5,80.5 245.5,79.5 245.5,78.5C 244.167,78.5 242.833,78.5 241.5,78.5C 241.5,77.5 241.5,76.5 241.5,75.5 Z"/></g>
<g><path style="opacity:0.957" fill="#59a8c6" d="M 266.5,89.5 C 274.288,94.6179 280.288,101.285 284.5,109.5C 281.595,108.468 279.762,106.468 279,103.5C 274.998,99.3312 270.831,95.3312 266.5,91.5C 266.5,90.8333 266.5,90.1667 266.5,89.5 Z"/></g>
<g><path style="opacity:0.514" fill="#78b4c9" d="M 128.5,111.5 C 126.529,118.108 123.529,124.108 119.5,129.5C 121.465,122.903 124.465,116.903 128.5,111.5 Z"/></g>
<g><path style="opacity:1" fill="#49a7d5" d="M 284.5,109.5 C 295.312,124.443 300.645,141.276 300.5,160C 300.063,176.705 296.396,192.538 289.5,207.5C 290.974,199.958 292.307,192.292 293.5,184.5C 293.167,183.5 292.833,182.5 292.5,181.5C 289.939,186.962 289.106,186.629 290,180.5C 291.096,176.976 291.929,173.31 292.5,169.5C 293.971,170.381 294.804,171.714 295,173.5C 295.667,172.167 296.333,172.167 297,173.5C 297.167,172.333 297.333,171.167 297.5,170C 296.59,165.702 294.923,161.702 292.5,158C 294.435,155.522 296.101,152.856 297.5,150C 296.606,148.604 295.939,147.104 295.5,145.5C 296.528,143.44 296.528,141.44 295.5,139.5C 294.148,140.518 293.148,141.851 292.5,143.5C 292.167,142.667 291.833,141.833 291.5,141C 293.775,137.148 293.941,133.315 292,129.5C 291.002,132.028 290.169,132.028 289.5,129.5C 292.365,126.224 291.865,123.557 288,121.5C 286.829,117.482 285.663,113.482 284.5,109.5 Z"/></g>
<g><path style="opacity:0.868" fill="#5fabcc" d="M 119.5,130.5 C 119.792,133.765 119.125,136.765 117.5,139.5C 117.972,141.307 118.306,143.14 118.5,145C 116.089,155.077 115.922,165.243 118,175.5C 120.837,188.844 124.837,201.844 130,214.5C 132.907,216.733 134.074,219.733 133.5,223.5C 135.143,223.52 136.476,222.853 137.5,221.5C 137.833,221.833 138.167,222.167 138.5,222.5C 137.194,226.207 137.36,229.874 139,233.5C 143.844,241.169 148.011,249.169 151.5,257.5C 137.43,235.689 126.263,212.355 118,187.5C 114.283,172.3 113.617,156.967 116,141.5C 116.498,137.509 117.665,133.842 119.5,130.5 Z"/></g>
<g><path style="opacity:1" fill="#3da8e1" d="M 229.5,70.5 C 233.081,72.9232 237.081,74.5898 241.5,75.5C 241.5,76.5 241.5,77.5 241.5,78.5C 242.833,78.5 244.167,78.5 245.5,78.5C 245.5,79.5 245.5,80.5 245.5,81.5C 242.428,81.1826 239.428,81.5159 236.5,82.5C 241.637,85.2368 246.637,88.2368 251.5,91.5C 252.167,91.1667 252.833,90.8333 253.5,90.5C 252.128,88.3802 252.795,87.3802 255.5,87.5C 255.498,89.8309 256.331,91.8309 258,93.5C 259.692,95.2446 261.525,95.5779 263.5,94.5C 261.806,92.1394 259.806,90.1394 257.5,88.5C 258.689,87.5713 260.022,87.238 261.5,87.5C 261.5,88.5 261.5,89.5 261.5,90.5C 263.292,90.366 264.958,90.6993 266.5,91.5C 270.831,95.3312 274.998,99.3312 279,103.5C 279.762,106.468 281.595,108.468 284.5,109.5C 285.663,113.482 286.829,117.482 288,121.5C 291.865,123.557 292.365,126.224 289.5,129.5C 290.169,132.028 291.002,132.028 292,129.5C 293.941,133.315 293.775,137.148 291.5,141C 291.833,141.833 292.167,142.667 292.5,143.5C 293.148,141.851 294.148,140.518 295.5,139.5C 296.528,141.44 296.528,143.44 295.5,145.5C 295.939,147.104 296.606,148.604 297.5,150C 296.101,152.856 294.435,155.522 292.5,158C 294.923,161.702 296.59,165.702 297.5,170C 297.333,171.167 297.167,172.333 297,173.5C 296.333,172.167 295.667,172.167 295,173.5C 294.804,171.714 293.971,170.381 292.5,169.5C 291.929,173.31 291.096,176.976 290,180.5C 289.106,186.629 289.939,186.962 292.5,181.5C 292.833,182.5 293.167,183.5 293.5,184.5C 292.307,192.292 290.974,199.958 289.5,207.5C 288.597,211.889 286.931,215.889 284.5,219.5C 280.657,226.552 276.491,233.552 272,240.5C 271.51,241.793 271.343,243.127 271.5,244.5C 270.5,244.5 269.5,244.5 268.5,244.5C 268.657,245.873 268.49,247.207 268,248.5C 264.649,252.547 261.815,256.881 259.5,261.5C 257.088,261.694 256.088,263.027 256.5,265.5C 252.194,265.303 250.194,267.303 250.5,271.5C 249.5,271.5 248.5,271.5 247.5,271.5C 247.17,274.109 245.67,275.776 243,276.5C 242.289,278.899 242.456,281.232 243.5,283.5C 241.146,285.246 240.146,287.579 240.5,290.5C 237.057,290.353 235.057,292.02 234.5,295.5C 231.288,297.363 229.288,300.03 228.5,303.5C 225.833,306.833 222.833,309.833 219.5,312.5C 218.127,312.343 216.793,312.51 215.5,313C 213.747,314.999 212.413,317.165 211.5,319.5C 209.08,319.708 206.747,319.374 204.5,318.5C 200.64,315.061 196.973,311.395 193.5,307.5C 191.925,306.544 190.258,305.877 188.5,305.5C 185.167,302.833 182.167,299.833 179.5,296.5C 179.978,293.722 178.978,291.722 176.5,290.5C 175.833,288.5 175.167,286.5 174.5,284.5C 172.937,283.055 171.604,281.389 170.5,279.5C 168.955,278.548 167.288,278.215 165.5,278.5C 165.414,272.57 162.747,268.236 157.5,265.5C 156.391,263.615 155.557,261.615 155,259.5C 154.184,258.177 153.017,257.511 151.5,257.5C 148.011,249.169 143.844,241.169 139,233.5C 137.36,229.874 137.194,226.207 138.5,222.5C 138.167,222.167 137.833,221.833 137.5,221.5C 136.476,222.853 135.143,223.52 133.5,223.5C 134.074,219.733 132.907,216.733 130,214.5C 124.837,201.844 120.837,188.844 118,175.5C 115.922,165.243 116.089,155.077 118.5,145C 118.306,143.14 117.972,141.307 117.5,139.5C 119.125,136.765 119.792,133.765 119.5,130.5C 119.5,130.167 119.5,129.833 119.5,129.5C 123.529,124.108 126.529,118.108 128.5,111.5C 129.759,107.975 131.759,104.975 134.5,102.5C 141.752,97.4213 148.586,91.7546 155,85.5C 157,84.1667 159,84.1667 161,85.5C 162.713,84.8626 162.879,83.8626 161.5,82.5C 163.482,81.7838 165.149,80.6171 166.5,79C 172.126,77.8017 177.126,75.4683 181.5,72C 197.469,70.6762 213.469,70.1762 229.5,70.5 Z"/></g>
<g><path style="opacity:1" fill="#57a5be" d="M 139.5,198.5 C 148.32,212.987 160.32,223.987 175.5,231.5C 172.089,230.64 168.756,229.474 165.5,228C 155.56,220.727 147.06,212.227 140,202.5C 139.51,201.207 139.343,199.873 139.5,198.5 Z"/></g>
<g><path style="opacity:1" fill="#58a8c0" d="M 275.5,198.5 C 275.453,201.928 274.287,204.928 272,207.5C 266.652,213.015 261.152,218.348 255.5,223.5C 252.432,225.7 249.099,227.367 245.5,228.5C 250.277,225.264 254.944,221.764 259.5,218C 262.423,215.584 264.757,212.75 266.5,209.5C 268.975,207.23 270.975,204.563 272.5,201.5C 273.272,200.306 274.272,199.306 275.5,198.5 Z"/></g>
<g><path style="opacity:1" fill="#e8fcf7" d="M 251.5,170.5 C 262.167,170.5 272.833,170.5 283.5,170.5C 282.522,178.766 280.522,186.766 277.5,194.5C 276.326,195.514 275.66,196.847 275.5,198.5C 274.272,199.306 273.272,200.306 272.5,201.5C 272.682,199.325 273.349,197.325 274.5,195.5C 273.802,194.137 273.802,192.971 274.5,192C 273.833,191.667 273.167,191.333 272.5,191C 273.874,188.417 275.374,185.917 277,183.5C 277.317,185.301 277.984,185.634 279,184.5C 280.608,181.207 280.775,177.873 279.5,174.5C 280.025,173.808 280.692,173.308 281.5,173C 279.5,172.5 277.5,172 275.5,171.5C 274.328,171.919 273.328,172.585 272.5,173.5C 269.7,172.268 266.7,171.601 263.5,171.5C 260.833,171.667 258.167,171.833 255.5,172C 252.748,174.831 250.081,177.665 247.5,180.5C 249.279,177.373 250.613,174.04 251.5,170.5 Z"/></g>
<g><path style="opacity:1" fill="#4fa8cc" d="M 133.5,137.5 C 128.043,158.579 130.043,178.912 139.5,198.5C 137.187,197.175 135.521,195.175 134.5,192.5C 133.311,191.571 131.978,191.238 130.5,191.5C 132.025,183.964 131.025,176.797 127.5,170C 127.656,159.217 129.156,148.717 132,138.5C 132.383,137.944 132.883,137.611 133.5,137.5 Z"/></g>
<g><path style="opacity:1" fill="#eefcf9" d="M 141.5,121.5 C 142.406,124.436 143.072,127.436 143.5,130.5C 141.856,130.714 140.356,130.38 139,129.5C 137.865,136.052 136.365,142.552 134.5,149C 134.645,149.772 134.978,150.439 135.5,151C 134.692,151.308 134.025,151.808 133.5,152.5C 133.846,153.696 134.346,153.696 135,152.5C 135.167,153.667 135.333,154.833 135.5,156C 133.588,162.436 133.255,168.936 134.5,175.5C 136.003,176.052 137.669,176.052 139.5,175.5C 139.64,177.124 138.973,178.29 137.5,179C 138.931,179.465 140.097,180.299 141,181.5C 141.273,183.329 142.107,184.829 143.5,186C 143.142,188.536 143.142,191.202 143.5,194C 141.31,195.887 141.143,198.053 143,200.5C 146.316,204.371 149.649,206.704 153,207.5C 153.333,209.047 152.833,210.38 151.5,211.5C 154.024,213.19 156.024,215.357 157.5,218C 161.04,218.6 163.707,220.434 165.5,223.5C 169.076,225.248 172.742,226.748 176.5,228C 176.167,228.333 175.833,228.667 175.5,229C 176.756,229.417 177.423,230.25 177.5,231.5C 176.833,231.5 176.167,231.5 175.5,231.5C 160.32,223.987 148.32,212.987 139.5,198.5C 130.043,178.912 128.043,158.579 133.5,137.5C 133.5,137.167 133.5,136.833 133.5,136.5C 135.411,131.105 138.077,126.105 141.5,121.5 Z"/></g>
<g><path style="opacity:1" fill="#65adb9" d="M 191.5,150.5 C 192.167,150.833 192.833,151.167 193.5,151.5C 193.666,157.842 193.5,164.175 193,170.5C 185.913,171.315 178.747,171.815 171.5,172C 168.392,173.94 167.725,176.606 169.5,180C 177.167,180.333 184.833,180.667 192.5,181C 193.469,185.737 193.803,190.57 193.5,195.5C 191.57,191.627 190.903,187.294 191.5,182.5C 184.492,182.666 177.492,182.5 170.5,182C 166.787,180.309 165.621,177.475 167,173.5C 167.278,172.584 167.778,171.918 168.5,171.5C 176.08,170.534 183.747,170.201 191.5,170.5C 191.5,163.833 191.5,157.167 191.5,150.5 Z"/></g>
<g><path style="opacity:1" fill="#42a8d9" d="M 193.5,151.5 C 194.323,154.977 194.823,158.644 195,162.5C 195.589,160.137 197.089,159.137 199.5,159.5C 197.984,166.704 197.151,174.038 197,181.5C 196.333,182.833 195.667,182.833 195,181.5C 194,185.827 194.667,189.827 197,193.5C 197.333,190.5 197.667,187.5 198,184.5C 198.906,187.454 200.073,190.287 201.5,193C 208.049,192.986 214.549,192.486 221,191.5C 221.893,192.081 222.893,192.415 224,192.5C 229.502,191.331 234.335,188.998 238.5,185.5C 237.5,184.167 236.5,182.833 235.5,181.5C 237.737,180.868 239.403,179.535 240.5,177.5C 241.386,178.325 241.719,179.325 241.5,180.5C 243.59,180.55 244.923,179.55 245.5,177.5C 242.9,174.959 242.9,172.459 245.5,170C 246.483,169.409 247.15,169.743 247.5,171C 247.05,172.285 246.383,173.452 245.5,174.5C 246.325,175.386 247.325,175.719 248.5,175.5C 248.273,173.067 249.273,171.401 251.5,170.5C 250.613,174.04 249.279,177.373 247.5,180.5C 244.369,183.129 241.369,185.962 238.5,189C 234.952,190.941 231.286,192.607 227.5,194C 216.23,195.409 204.896,195.909 193.5,195.5C 193.803,190.57 193.469,185.737 192.5,181C 184.833,180.667 177.167,180.333 169.5,180C 167.725,176.606 168.392,173.94 171.5,172C 178.747,171.815 185.913,171.315 193,170.5C 193.5,164.175 193.666,157.842 193.5,151.5 Z"/></g>
<g><path style="opacity:1" fill="#dcfaf8" d="M 167.5,149.5 C 175.414,150.467 183.414,150.801 191.5,150.5C 191.5,157.167 191.5,163.833 191.5,170.5C 183.747,170.201 176.08,170.534 168.5,171.5C 169.23,169.955 170.563,169.122 172.5,169C 178.491,168.501 184.491,168.334 190.5,168.5C 190.5,163.167 190.5,157.833 190.5,152.5C 183.492,152.666 176.492,152.5 169.5,152C 168.244,151.583 167.577,150.75 167.5,149.5 Z"/></g>
<g><path style="opacity:1" fill="#4fa9ce" d="M 277.5,194.5 C 280.522,186.766 282.522,178.766 283.5,170.5C 272.833,170.5 262.167,170.5 251.5,170.5C 251.5,169.5 251.5,168.5 251.5,167.5C 259.5,167.5 267.5,167.5 275.5,167.5C 275.5,166.167 275.5,164.833 275.5,163.5C 280.036,163.433 284.369,164.099 288.5,165.5C 288.5,166.833 288.5,168.167 288.5,169.5C 284.921,169.766 284.587,171.099 287.5,173.5C 287.091,175.991 285.924,177.991 284,179.5C 283.154,183.084 283.654,186.417 285.5,189.5C 285.167,190.167 284.833,190.833 284.5,191.5C 283.719,190.271 283.219,188.938 283,187.5C 281.147,189.903 279.314,192.236 277.5,194.5 Z"/></g>
<g><path style="opacity:1" fill="#4fa6c8" d="M 277.5,127.5 C 283.201,134.266 285.534,142.266 284.5,151.5C 285.675,151.281 286.675,151.614 287.5,152.5C 286.833,152.833 286.167,153.167 285.5,153.5C 273.86,152.708 262.193,152.208 250.5,152C 249.663,150.989 249.33,149.822 249.5,148.5C 248.5,148.5 247.5,148.5 246.5,148.5C 246.762,149.978 246.429,151.311 245.5,152.5C 244.232,150.696 243.565,148.696 243.5,146.5C 244.5,146.5 245.5,146.5 246.5,146.5C 246.5,144.833 246.5,143.167 246.5,141.5C 249.207,144.247 250.873,147.58 251.5,151.5C 262.167,151.5 272.833,151.5 283.5,151.5C 283.806,148.615 283.473,145.948 282.5,143.5C 281.448,137.953 279.781,132.619 277.5,127.5 Z"/></g>
<g><path style="opacity:1" fill="#d9f6ea" d="M 242.5,135.5 C 245.394,136.882 247.894,138.882 250,141.5C 251.299,144.417 253.133,146.917 255.5,149C 264.079,149.816 272.579,149.649 281,148.5C 281.333,149.167 281.667,149.833 282,150.5C 282.497,148.19 282.663,145.857 282.5,143.5C 283.473,145.948 283.806,148.615 283.5,151.5C 272.833,151.5 262.167,151.5 251.5,151.5C 250.873,147.58 249.207,144.247 246.5,141.5C 245.585,139.246 244.252,137.246 242.5,135.5 Z"/></g>
<g><path style="opacity:1" fill="#5da8c1" d="M 145.5,113.5 C 144.167,116.167 142.833,118.833 141.5,121.5C 138.077,126.105 135.411,131.105 133.5,136.5C 133.343,135.127 133.51,133.793 134,132.5C 136.607,127.62 138.94,122.62 141,117.5C 142.049,115.616 143.549,114.282 145.5,113.5 Z"/></g>
<g><path style="opacity:1" fill="#e6fcf6" d="M 217.5,84.5 C 208.706,84.091 200.04,84.9244 191.5,87C 192.336,88.2433 192.003,89.4099 190.5,90.5C 186.863,88.1348 183.196,88.3014 179.5,91C 179.833,91.3333 180.167,91.6667 180.5,92C 179.24,93.113 178.073,93.2797 177,92.5C 171.857,94.2462 167.357,97.0795 163.5,101C 160.94,101.384 158.606,102.217 156.5,103.5C 157.167,102.5 157.833,101.5 158.5,100.5C 176.033,86.8688 195.7,81.5355 217.5,84.5 Z"/></g>
<g><path style="opacity:1" fill="#e3fdf3" d="M 238.5,90.5 C 247.229,93.5253 254.562,98.5253 260.5,105.5C 256.659,102.983 252.826,100.317 249,97.5C 248.667,97.8333 248.333,98.1667 248,98.5C 244.784,95.678 241.617,93.0113 238.5,90.5 Z"/></g>
<g><path style="opacity:1" fill="#57a7bf" d="M 223.5,84.5 C 221.5,84.5 219.5,84.5 217.5,84.5C 195.7,81.5355 176.033,86.8688 158.5,100.5C 158.5,99.5 158.5,98.5 158.5,97.5C 166.939,91.9649 175.939,87.4649 185.5,84C 197.123,82.4728 208.79,82.1395 220.5,83C 221.737,83.2321 222.737,83.7321 223.5,84.5 Z"/></g>
<g><path style="opacity:1" fill="#57a8c1" d="M 223.5,84.5 C 226.187,84.3359 228.854,84.5026 231.5,85C 240.241,88.3733 248.574,92.7066 256.5,98C 257.219,100.556 258.886,101.723 261.5,101.5C 265.557,105.925 268.89,110.925 271.5,116.5C 269.113,114.087 266.946,111.42 265,108.5C 263.871,106.859 262.371,105.859 260.5,105.5C 254.562,98.5253 247.229,93.5253 238.5,90.5C 233.564,88.3489 228.564,86.3489 223.5,84.5 Z"/></g>
<g><path style="opacity:1" fill="#fcfefc" d="M 217.5,84.5 C 219.5,84.5 221.5,84.5 223.5,84.5C 228.564,86.3489 233.564,88.3489 238.5,90.5C 241.617,93.0113 244.784,95.678 248,98.5C 248.333,98.1667 248.667,97.8333 249,97.5C 252.826,100.317 256.659,102.983 260.5,105.5C 262.371,105.859 263.871,106.859 265,108.5C 266.946,111.42 269.113,114.087 271.5,116.5C 273.234,120.3 275.234,123.966 277.5,127.5C 279.781,132.619 281.448,137.953 282.5,143.5C 282.663,145.857 282.497,148.19 282,150.5C 281.667,149.833 281.333,149.167 281,148.5C 272.579,149.649 264.079,149.816 255.5,149C 253.133,146.917 251.299,144.417 250,141.5C 247.894,138.882 245.394,136.882 242.5,135.5C 237.839,131.509 232.505,128.843 226.5,127.5C 224.708,126.691 222.708,126.191 220.5,126C 210.839,125.5 201.172,125.334 191.5,125.5C 191.5,130.167 191.5,134.833 191.5,139.5C 184.159,139.334 176.826,139.5 169.5,140C 168.584,140.374 167.75,140.874 167,141.5C 166.278,144.261 166.445,146.927 167.5,149.5C 167.577,150.75 168.244,151.583 169.5,152C 176.492,152.5 183.492,152.666 190.5,152.5C 190.5,157.833 190.5,163.167 190.5,168.5C 184.491,168.334 178.491,168.501 172.5,169C 170.563,169.122 169.23,169.955 168.5,171.5C 167.778,171.918 167.278,172.584 167,173.5C 165.621,177.475 166.787,180.309 170.5,182C 177.492,182.5 184.492,182.666 191.5,182.5C 190.903,187.294 191.57,191.627 193.5,195.5C 204.896,195.909 216.23,195.409 227.5,194C 231.286,192.607 234.952,190.941 238.5,189C 241.369,185.962 244.369,183.129 247.5,180.5C 250.081,177.665 252.748,174.831 255.5,172C 258.167,171.833 260.833,171.667 263.5,171.5C 266.7,171.601 269.7,172.268 272.5,173.5C 273.328,172.585 274.328,171.919 275.5,171.5C 277.5,172 279.5,172.5 281.5,173C 280.692,173.308 280.025,173.808 279.5,174.5C 280.775,177.873 280.608,181.207 279,184.5C 277.984,185.634 277.317,185.301 277,183.5C 275.374,185.917 273.874,188.417 272.5,191C 273.167,191.333 273.833,191.667 274.5,192C 273.802,192.971 273.802,194.137 274.5,195.5C 273.349,197.325 272.682,199.325 272.5,201.5C 270.975,204.563 268.975,207.23 266.5,209.5C 260.626,212.955 254.96,217.622 249.5,223.5C 245.305,224.709 241.971,227.043 239.5,230.5C 239.5,230.833 239.5,231.167 239.5,231.5C 221.911,237.873 203.911,239.206 185.5,235.5C 182.921,233.975 180.254,232.641 177.5,231.5C 177.423,230.25 176.756,229.417 175.5,229C 175.833,228.667 176.167,228.333 176.5,228C 172.742,226.748 169.076,225.248 165.5,223.5C 163.707,220.434 161.04,218.6 157.5,218C 156.024,215.357 154.024,213.19 151.5,211.5C 152.833,210.38 153.333,209.047 153,207.5C 149.649,206.704 146.316,204.371 143,200.5C 141.143,198.053 141.31,195.887 143.5,194C 143.142,191.202 143.142,188.536 143.5,186C 142.107,184.829 141.273,183.329 141,181.5C 140.097,180.299 138.931,179.465 137.5,179C 138.973,178.29 139.64,177.124 139.5,175.5C 137.669,176.052 136.003,176.052 134.5,175.5C 133.255,168.936 133.588,162.436 135.5,156C 135.333,154.833 135.167,153.667 135,152.5C 134.346,153.696 133.846,153.696 133.5,152.5C 134.025,151.808 134.692,151.308 135.5,151C 134.978,150.439 134.645,149.772 134.5,149C 136.365,142.552 137.865,136.052 139,129.5C 140.356,130.38 141.856,130.714 143.5,130.5C 143.072,127.436 142.406,124.436 141.5,121.5C 142.833,118.833 144.167,116.167 145.5,113.5C 148.739,109.683 152.405,106.349 156.5,103.5C 158.606,102.217 160.94,101.384 163.5,101C 167.357,97.0795 171.857,94.2462 177,92.5C 178.073,93.2797 179.24,93.113 180.5,92C 180.167,91.6667 179.833,91.3333 179.5,91C 183.196,88.3014 186.863,88.1348 190.5,90.5C 192.003,89.4099 192.336,88.2433 191.5,87C 200.04,84.9244 208.706,84.091 217.5,84.5 Z"/></g>
<g><path style="opacity:1" fill="#43a8d5" d="M 221.5,127.5 C 223.167,127.5 224.833,127.5 226.5,127.5C 232.505,128.843 237.839,131.509 242.5,135.5C 244.252,137.246 245.585,139.246 246.5,141.5C 244.519,139.856 242.519,138.19 240.5,136.5C 239.571,137.689 239.238,139.022 239.5,140.5C 237.278,140.178 235.444,140.845 234,142.5C 226.697,140.594 226.864,138.927 234.5,137.5C 236.973,135.758 236.973,133.925 234.5,132C 231.781,130.216 228.948,130.05 226,131.5C 225.167,131.167 224.333,130.833 223.5,130.5C 225.078,129.702 226.744,129.202 228.5,129C 225.964,128.814 223.631,128.314 221.5,127.5 Z"/></g>
<g><path style="opacity:1" fill="#5aa5bd" d="M 226.5,127.5 C 224.833,127.5 223.167,127.5 221.5,127.5C 212.868,126.422 204.202,126.256 195.5,127C 195.022,131.469 194.022,135.802 192.5,140C 185.167,140.333 177.833,140.667 170.5,141C 166.867,143.189 166.534,145.856 169.5,149C 177.011,149.171 184.345,149.671 191.5,150.5C 183.414,150.801 175.414,150.467 167.5,149.5C 166.445,146.927 166.278,144.261 167,141.5C 167.75,140.874 168.584,140.374 169.5,140C 176.826,139.5 184.159,139.334 191.5,139.5C 191.5,134.833 191.5,130.167 191.5,125.5C 201.172,125.334 210.839,125.5 220.5,126C 222.708,126.191 224.708,126.691 226.5,127.5 Z"/></g>
<g><path style="opacity:1" fill="#ddf9f6" d="M 266.5,209.5 C 264.757,212.75 262.423,215.584 259.5,218C 254.944,221.764 250.277,225.264 245.5,228.5C 243.5,229.167 241.5,229.833 239.5,230.5C 241.971,227.043 245.305,224.709 249.5,223.5C 254.96,217.622 260.626,212.955 266.5,209.5 Z"/></g>
<g><path style="opacity:0.639" fill="#6cb1cb" d="M 284.5,219.5 C 277.287,236.934 268.287,253.268 257.5,268.5C 257.166,265.812 257.832,263.479 259.5,261.5C 261.815,256.881 264.649,252.547 268,248.5C 268.49,247.207 268.657,245.873 268.5,244.5C 269.5,244.5 270.5,244.5 271.5,244.5C 271.343,243.127 271.51,241.793 272,240.5C 276.491,233.552 280.657,226.552 284.5,219.5 Z"/></g>
<g><path style="opacity:1" fill="#57a6c0" d="M 239.5,231.5 C 239.047,232.458 238.381,233.292 237.5,234C 221.817,238.941 205.817,240.274 189.5,238C 188.142,237.066 186.808,236.232 185.5,235.5C 203.911,239.206 221.911,237.873 239.5,231.5 Z"/></g>
<g><path style="opacity:1" fill="#54abd7" d="M 259.5,261.5 C 257.832,263.479 257.166,265.812 257.5,268.5C 252.568,276.429 246.901,283.762 240.5,290.5C 240.146,287.579 241.146,285.246 243.5,283.5C 242.456,281.232 242.289,278.899 243,276.5C 245.67,275.776 247.17,274.109 247.5,271.5C 248.5,271.5 249.5,271.5 250.5,271.5C 250.194,267.303 252.194,265.303 256.5,265.5C 256.088,263.027 257.088,261.694 259.5,261.5 Z"/></g>
<g><path style="opacity:1" fill="#68b0d2" d="M 151.5,257.5 C 153.017,257.511 154.184,258.177 155,259.5C 155.557,261.615 156.391,263.615 157.5,265.5C 162.747,268.236 165.414,272.57 165.5,278.5C 160.056,272.049 155.39,265.049 151.5,257.5 Z"/></g>
<g><path style="opacity:1" fill="#63b0cf" d="M 165.5,278.5 C 167.288,278.215 168.955,278.548 170.5,279.5C 171.604,281.389 172.937,283.055 174.5,284.5C 175.167,286.5 175.833,288.5 176.5,290.5C 178.978,291.722 179.978,293.722 179.5,296.5C 174.361,290.901 169.695,284.901 165.5,278.5 Z"/></g>
<g><path style="opacity:0.314" fill="#6bb1cc" d="M 240.5,290.5 C 237.208,295.46 233.208,299.793 228.5,303.5C 229.288,300.03 231.288,297.363 234.5,295.5C 235.057,292.02 237.057,290.353 240.5,290.5 Z"/></g>
<g><path style="opacity:0.953" fill="#6cafc7" d="M 188.5,305.5 C 190.258,305.877 191.925,306.544 193.5,307.5C 196.973,311.395 200.64,315.061 204.5,318.5C 206.747,319.374 209.08,319.708 211.5,319.5C 209.659,322.426 207.325,322.926 204.5,321C 198.663,316.33 193.33,311.163 188.5,305.5 Z"/></g>
<g><path style="opacity:0.529" fill="#6fb2c4" d="M 219.5,312.5 C 216.874,314.823 214.207,317.157 211.5,319.5C 212.413,317.165 213.747,314.999 215.5,313C 216.793,312.51 218.127,312.343 219.5,312.5 Z"/></g>
</svg>
