<?xml version="1.0" standalone="no"?>
<!DOCTYPE svg PUBLIC "-//W3C//DTD SVG 20010904//EN"
 "http://www.w3.org/TR/2001/REC-SVG-20010904/DTD/svg10.dtd">
<svg version="1.0" xmlns="http://www.w3.org/2000/svg"
 width="230.000000pt" height="204.000000pt" viewBox="0 0 230.000000 204.000000"
 preserveAspectRatio="xMidYMid meet">

<g transform="translate(0.000000,204.000000) scale(0.100000,-0.100000)"
fill="#000000" stroke="none">
<path d="M945 1789 c-264 -17 -445 -77 -558 -187 -52 -51 -102 -155 -117 -244
-16 -91 -8 -313 14 -418 46 -214 127 -373 252 -497 103 -101 220 -162 393
-206 130 -32 330 -29 466 6 321 85 519 291 606 632 25 99 31 147 36 275 6 183
-3 247 -52 347 -89 181 -275 267 -632 293 -152 11 -229 11 -408 -1z m596 -82
c163 -34 245 -73 325 -152 50 -49 65 -73 85 -130 22 -63 24 -86 24 -230 -1
-292 -75 -514 -227 -680 -254 -278 -770 -321 -1092 -91 -209 149 -336 446
-336 786 0 328 144 459 565 514 17 2 154 3 305 1 202 -2 295 -7 351 -18z"/>
<path d="M957 1664 c-79 -21 -83 -29 -38 -80 105 -119 129 -292 59 -427 -31
-62 -107 -136 -173 -170 -56 -30 -67 -32 -166 -32 -91 0 -113 3 -158 25 -62
29 -70 23 -64 -53 10 -128 51 -248 109 -326 2 -2 31 21 64 52 115 107 217 162
363 197 243 59 507 -13 701 -191 l64 -59 19 27 c24 36 52 97 69 153 19 59 31
220 16 220 -6 0 -32 -10 -59 -22 -40 -18 -66 -22 -153 -22 -94 0 -111 3 -162
27 -75 35 -147 108 -183 182 -26 54 -29 70 -30 160 0 88 3 107 26 156 15 31
43 74 63 96 54 60 51 67 -42 89 -71 17 -261 16 -325 -2z m293 -24 c30 -6 56
-12 58 -15 3 -2 -7 -20 -22 -40 -82 -107 -109 -262 -67 -386 38 -114 129 -209
246 -257 68 -27 214 -31 272 -7 61 26 67 22 60 -37 -6 -60 -51 -203 -73 -233
-14 -18 -16 -18 -57 22 -183 177 -472 254 -723 193 -138 -33 -282 -110 -363
-194 -19 -20 -38 -36 -43 -36 -11 0 -47 73 -64 129 -18 61 -30 171 -17 171 5
0 31 -7 56 -16 34 -11 73 -15 140 -12 79 3 102 8 160 35 86 41 160 116 201
203 27 58 30 76 31 160 0 111 -19 177 -71 246 -19 24 -34 48 -34 54 0 5 17 12
38 15 20 4 42 8 47 10 23 8 176 4 225 -5z"/>
<path d="M553 1599 c-64 -25 -137 -93 -166 -157 -30 -65 -30 -188 -1 -252 65
-140 234 -212 377 -162 123 44 198 143 205 272 12 221 -207 379 -415 299z
m226 -52 c192 -95 190 -373 -3 -463 -98 -46 -228 -23 -298 52 -114 122 -81
330 64 405 83 43 158 44 237 6z"/>
<path d="M635 1340 c-4 -6 -4 -22 -1 -36 5 -20 12 -25 34 -22 23 2 27 8 27 33
0 25 -4 31 -27 33 -14 2 -29 -2 -33 -8z"/>
<path d="M1455 1592 c-112 -53 -175 -153 -175 -277 0 -122 60 -219 168 -272
49 -24 68 -28 137 -27 96 1 138 18 205 80 155 145 115 397 -77 494 -36 18 -68
25 -123 27 -65 3 -83 -1 -135 -25z m230 -41 c61 -27 98 -63 129 -127 24 -48
28 -66 24 -118 -10 -145 -114 -245 -254 -246 -74 0 -121 18 -175 67 -99 90
-115 221 -40 334 71 105 198 141 316 90z"/>
<path d="M1551 1332 c-20 -38 31 -71 59 -37 6 8 9 23 5 35 -8 25 -51 27 -64 2z"/>
<path d="M1029 727 c-39 -26 -79 -97 -79 -142 0 -40 38 -114 71 -138 94 -68
239 -16 268 97 18 73 -20 156 -90 191 -44 23 -130 19 -170 -8z m163 -23 c72
-37 92 -140 39 -205 -56 -68 -145 -72 -205 -11 -52 55 -53 138 -1 192 46 48
103 56 167 24z"/>
<path d="M684 618 c-22 -10 -44 -47 -44 -72 0 -7 9 -25 21 -40 26 -33 79 -36
109 -6 30 30 27 83 -6 109 -29 23 -48 25 -80 9z m59 -9 c43 -23 50 -66 17 -99
-26 -26 -58 -25 -87 2 -35 32 -27 68 22 96 25 14 22 14 48 1z"/>
<path d="M1495 618 c-48 -28 -56 -64 -24 -109 27 -38 89 -42 113 -7 25 35 20
83 -10 107 -30 24 -50 26 -79 9z m69 -19 c16 -12 26 -30 26 -46 0 -31 -34 -63
-66 -63 -23 0 -64 42 -64 65 0 22 42 60 71 64 4 1 18 -8 33 -20z"/>
<path d="M970 361 c0 -29 33 -36 180 -36 147 0 180 7 180 36 0 20 -3 21 -57
13 -32 -5 -87 -9 -123 -9 -36 0 -91 4 -122 9 -55 8 -58 7 -58 -13z"/>
</g>
</svg>
