<?xml version="1.0" standalone="no"?>
<!DOCTYPE svg PUBLIC "-//W3C//DTD SVG 20010904//EN"
 "http://www.w3.org/TR/2001/REC-SVG-20010904/DTD/svg10.dtd">
<svg version="1.0" xmlns="http://www.w3.org/2000/svg"
 width="476.000000pt" height="446.000000pt" viewBox="0 0 476.000000 446.000000"
 preserveAspectRatio="xMidYMid meet">

<g transform="translate(0.000000,446.000000) scale(0.100000,-0.100000)"
fill="#000000" stroke="none">
<path d="M1915 4031 c-39 -17 -67 -59 -84 -127 -9 -37 -23 -71 -31 -75 -8 -4
-60 -22 -115 -39 -203 -62 -421 -187 -590 -336 -538 -477 -723 -1225 -470
-1902 178 -474 584 -862 1060 -1012 55 -17 107 -35 115 -39 8 -5 25 -47 37
-97 13 -52 29 -94 40 -101 24 -18 662 -19 686 -1 9 7 27 53 40 102 12 49 29
93 37 97 8 4 61 22 117 39 366 113 711 388 923 735 185 302 275 692 241 1035
-32 310 -121 564 -284 812 -202 306 -541 563 -882 668 -55 17 -106 35 -114 39
-8 4 -23 38 -33 77 -13 46 -29 79 -49 99 l-29 30 -298 2 c-163 1 -306 -2 -317
-6z m563 -128 c5 -10 14 -40 21 -68 25 -107 28 -110 151 -140 35 -9 112 -36
170 -59 556 -226 940 -759 977 -1356 4 -67 10 -97 20 -103 12 -8 12 -10 0 -20
-10 -8 -16 -41 -20 -107 -18 -308 -135 -613 -332 -870 -51 -65 -210 -223 -280
-277 -156 -120 -369 -226 -535 -268 -126 -31 -122 -27 -155 -157 l-17 -68
-258 0 -257 0 -17 68 c-10 37 -20 74 -22 83 -8 30 -42 50 -116 69 -418 104
-803 421 -1008 830 -187 372 -213 844 -70 1247 124 348 389 661 715 845 92 52
287 132 360 148 97 21 103 25 126 104 38 131 1 116 288 116 228 0 251 -2 259
-17z"/>
<path d="M2088 3570 c-492 -47 -931 -351 -1142 -792 -47 -100 -83 -206 -112
-333 -29 -124 -27 -455 4 -584 30 -126 55 -196 107 -304 169 -355 476 -620
851 -736 55 -17 140 -38 189 -46 119 -21 362 -21 478 -1 443 80 822 362 1022
763 99 199 145 397 145 628 0 294 -76 548 -235 785 -286 427 -796 668 -1307
620z m324 -130 c209 -42 329 -86 483 -178 243 -146 458 -413 550 -687 60 -179
81 -424 51 -606 -86 -518 -461 -928 -968 -1055 -143 -36 -373 -44 -515 -19
-538 97 -938 475 -1056 1000 -29 133 -31 395 -3 525 83 386 321 702 667 884
195 103 364 144 591 145 81 1 171 -4 200 -9z"/>
<path d="M1746 2968 c-53 -14 -128 -90 -144 -144 -39 -132 27 -263 155 -305
80 -26 205 13 253 80 27 39 50 105 50 146 0 41 -23 107 -50 146 -50 69 -169
104 -264 77z m135 -131 c21 -14 39 -37 47 -61 11 -34 10 -43 -5 -75 -36 -72
-119 -90 -176 -37 -52 48 -41 140 21 178 37 24 73 22 113 -5z"/>
<path d="M2537 2966 c-57 -21 -103 -61 -127 -112 -77 -158 17 -326 190 -341
134 -12 250 95 250 232 0 88 -48 168 -123 206 -52 27 -140 34 -190 15z m128
-122 c69 -32 84 -123 29 -178 -70 -69 -184 -22 -184 77 0 49 13 73 53 97 39
24 59 25 102 4z"/>
<path d="M1525 2181 c-111 -29 -178 -114 -178 -226 0 -206 243 -313 392 -172
87 82 96 224 21 320 -49 62 -158 98 -235 78z m116 -137 c56 -28 64 -128 14
-171 -51 -45 -108 -42 -156 7 -51 50 -35 139 31 172 35 18 64 16 111 -8z"/>
<path d="M2800 2181 c-109 -34 -170 -115 -170 -228 1 -249 325 -323 442 -100
29 56 30 146 1 202 -53 101 -173 156 -273 126z m143 -149 c12 -13 22 -39 25
-71 4 -45 2 -53 -25 -80 -50 -50 -106 -53 -158 -8 -30 26 -43 87 -26 130 24
61 134 78 184 29z"/>
<path d="M2133 1623 c-59 -20 -127 -98 -143 -162 -36 -151 94 -304 246 -288
199 21 289 240 158 386 -68 76 -163 99 -261 64z m131 -117 c44 -18 66 -51 66
-99 0 -77 -65 -127 -141 -107 -94 26 -107 158 -20 205 33 18 54 18 95 1z"/>
</g>
</svg>
