<?xml version="1.0" encoding="UTF-8" standalone="no" ?>
<!DOCTYPE svg PUBLIC "-//W3C//DTD SVG 1.1//EN" "http://www.w3.org/Graphics/SVG/1.1/DTD/svg11.dtd">
<svg xmlns="http://www.w3.org/2000/svg" xmlns:xlink="http://www.w3.org/1999/xlink" version="1.1" width="1080" height="1080" viewBox="0 0 1080 1080" xml:space="preserve">
<desc>Created with Fabric.js 5.2.4</desc>
<defs>
</defs>
<g transform="matrix(1 0 0 1 540 540)" id="e5022cfd-91ea-4aaa-9fad-e767dcfc4434"  >
<rect style="stroke: none; stroke-width: 1; stroke-dasharray: none; stroke-linecap: butt; stroke-dashoffset: 0; stroke-linejoin: miter; stroke-miterlimit: 4; fill: rgb(255,255,255); fill-rule: nonzero; opacity: 1; visibility: hidden;" vector-effect="non-scaling-stroke"  x="-540" y="-540" rx="0" ry="0" width="1080" height="1080" />
</g>
<g transform="matrix(1 0 0 1 540 540)" id="9e246441-4a25-491a-9946-2890f8db5050"  >
</g>
<g transform="matrix(1 0 0 1 540 540)"  >
<g style="" vector-effect="non-scaling-stroke"   >
		<g transform="matrix(0.13 0 0 -0.13 0 0)"  >
<path style="stroke: none; stroke-width: 1; stroke-dasharray: none; stroke-linecap: butt; stroke-dashoffset: 0; stroke-linejoin: miter; stroke-miterlimit: 4; fill: rgb(0,0,0); fill-rule: nonzero; opacity: 1;" vector-effect="non-scaling-stroke"  transform=" translate(-2220.66, -2163.09)" d="M 1915 4031 C 1876 4014 1848 3972 1831 3904 C 1822 3867 1808 3833 1800 3829 C 1792 3825 1740 3807 1685 3790 C 1482 3728 1264 3603 1095 3454 C 557 2977 372 2229 625 1552 C 803 1078 1209 690 1685 540 C 1740 523 1792 505 1800 501 C 1808 496 1825 454 1837 404 C 1850 352 1866 310 1877 303 C 1901 285 2539 284 2563 302 C 2572 309 2590 355 2603 404 C 2615 453 2632 497 2640 501 C 2648 505 2701 523 2757 540 C 3123 653 3468 928 3680 1275 C 3865 1577 3955 1967 3921 2310 C 3889 2620 3800 2874 3637 3122 C 3435 3428 3096 3685 2755 3790 C 2700 3807 2649 3825 2641 3829 C 2633 3833 2618 3867 2608 3906 C 2595 3952 2579 3985 2559 4005 L 2530 4035 L 2232 4037 C 2069 4038 1926 4035 1915 4031 z M 2478 3903 C 2483 3893 2492 3863 2499 3835 C 2524 3728 2527 3725 2650 3695 C 2685 3686 2762 3659 2820 3636 C 3376 3410 3760 2877 3797 2280 C 3801 2213 3807 2183 3817 2177 C 3829 2169 3829 2167 3817 2157 C 3807 2149 3801 2116 3797 2050 C 3779 1742 3662 1437 3465 1180 C 3414 1115 3255 957 3185 903 C 3029 783 2816 677 2650 635 C 2524 604 2528 608 2495 478 L 2478 410 L 2220 410 L 1963 410 L 1946 478 C 1936 515 1926 552 1924 561 C 1916 591 1882 611 1808 630 C 1390 734 1005 1051 800 1460 C 613 1832 587 2304 730 2707 C 854 3055 1119 3368 1445 3552 C 1537 3604 1732 3684 1805 3700 C 1902 3721 1908 3725 1931 3804 C 1969 3935 1932 3920 2219 3920 C 2447 3920 2470 3918 2478 3903 z" stroke-linecap="round" />
</g>
		<g transform="matrix(0.13 0 0 -0.13 0.14 -0.6)"  >
<path style="stroke: none; stroke-width: 1; stroke-dasharray: none; stroke-linecap: butt; stroke-dashoffset: 0; stroke-linejoin: miter; stroke-miterlimit: 4; fill: rgb(0,0,0); fill-rule: nonzero; opacity: 1;" vector-effect="non-scaling-stroke"  transform=" translate(-2221.72, -2167.58)" d="M 2088 3570 C 1596 3523 1157 3219 946 2778 C 899 2678 863 2572 834 2445 C 805 2321 807 1990 838 1861 C 868 1735 893 1665 945 1557 C 1114 1202 1421 937 1796 821 C 1851 804 1936 783 1985 775 C 2104 754 2347 754 2463 774 C 2906 854 3285 1136 3485 1537 C 3584 1736 3630 1934 3630 2165 C 3630 2459 3554 2713 3395 2950 C 3109 3377 2599 3618 2088 3570 z M 2412 3440 C 2621 3398 2741 3354 2895 3262 C 3138 3116 3353 2849 3445 2575 C 3505 2396 3526 2151 3496 1969 C 3410 1451 3035 1041 2528 914 C 2385 878 2155 870 2013 895 C 1475 992 1075 1370 957 1895 C 928 2028 926 2290 954 2420 C 1037 2806 1275 3122 1621 3304 C 1816 3407 1985 3448 2212 3449 C 2293 3450 2383 3445 2412 3440 z" stroke-linecap="round" />
</g>
		<g transform="matrix(0.13 0 0 -0.13 -52.7 -77.45)"  >
<path style="stroke: none; stroke-width: 1; stroke-dasharray: none; stroke-linecap: butt; stroke-dashoffset: 0; stroke-linejoin: miter; stroke-miterlimit: 4; fill: rgb(0,0,0); fill-rule: nonzero; opacity: 1;" vector-effect="non-scaling-stroke"  transform=" translate(-1825.42, -2744)" d="M 1746 2968 C 1693 2954 1618 2878 1602 2824 C 1563 2692 1629 2561 1757 2519 C 1837 2493 1962 2532 2010 2599 C 2037 2638 2060 2704 2060 2745 C 2060 2786 2037 2852 2010 2891 C 1960 2960 1841 2995 1746 2968 z M 1881 2837 C 1902 2823 1920 2800 1928 2776 C 1939 2742 1938 2733 1923 2701 C 1887 2629 1804 2611 1747 2664 C 1695 2712 1706 2804 1768 2842 C 1805 2866 1841 2864 1881 2837 z" stroke-linecap="round" />
</g>
		<g transform="matrix(0.13 0 0 -0.13 52.77 -77.51)"  >
<path style="stroke: none; stroke-width: 1; stroke-dasharray: none; stroke-linecap: butt; stroke-dashoffset: 0; stroke-linejoin: miter; stroke-miterlimit: 4; fill: rgb(0,0,0); fill-rule: nonzero; opacity: 1;" vector-effect="non-scaling-stroke"  transform=" translate(-2616.42, -2744.4)" d="M 2537 2966 C 2480 2945 2434 2905 2410 2854 C 2333 2696 2427 2528 2600 2513 C 2734 2501 2850 2608 2850 2745 C 2850 2833 2802 2913 2727 2951 C 2675 2978 2587 2985 2537 2966 z M 2665 2844 C 2734 2812 2749 2721 2694 2666 C 2624 2597 2510 2644 2510 2743 C 2510 2792 2523 2816 2563 2840 C 2602 2864 2622 2865 2665 2844 z" stroke-linecap="round" />
</g>
		<g transform="matrix(0.13 0 0 -0.13 -85.57 28.05)"  >
<path style="stroke: none; stroke-width: 1; stroke-dasharray: none; stroke-linecap: butt; stroke-dashoffset: 0; stroke-linejoin: miter; stroke-miterlimit: 4; fill: rgb(0,0,0); fill-rule: nonzero; opacity: 1;" vector-effect="non-scaling-stroke"  transform=" translate(-1578.89, -1952.73)" d="M 1525 2181 C 1414 2152 1347 2067 1347 1955 C 1347 1749 1590 1642 1739 1783 C 1826 1865 1835 2007 1760 2103 C 1711 2165 1602 2201 1525 2181 z M 1641 2044 C 1697 2016 1705 1916 1655 1873 C 1604 1828 1547 1831 1499 1880 C 1448 1930 1464 2019 1530 2052 C 1565 2070 1594 2068 1641 2044 z" stroke-linecap="round" />
</g>
		<g transform="matrix(0.13 0 0 -0.13 85.53 27.8)"  >
<path style="stroke: none; stroke-width: 1; stroke-dasharray: none; stroke-linecap: butt; stroke-dashoffset: 0; stroke-linejoin: miter; stroke-miterlimit: 4; fill: rgb(0,0,0); fill-rule: nonzero; opacity: 1;" vector-effect="non-scaling-stroke"  transform=" translate(-2862.13, -1954.62)" d="M 2800 2181 C 2691 2147 2630 2066 2630 1953 C 2631 1704 2955 1630 3072 1853 C 3101 1909 3102 1999 3073 2055 C 3020 2156 2900 2211 2800 2181 z M 2943 2032 C 2955 2019 2965 1993 2968 1961 C 2972 1916 2970 1908 2943 1881 C 2893 1831 2837 1828 2785 1873 C 2755 1899 2742 1960 2759 2003 C 2783 2064 2893 2081 2943 2032 z" stroke-linecap="round" />
</g>
		<g transform="matrix(0.13 0 0 -0.13 -0.12 101.02)"  >
<path style="stroke: none; stroke-width: 1; stroke-dasharray: none; stroke-linecap: butt; stroke-dashoffset: 0; stroke-linejoin: miter; stroke-miterlimit: 4; fill: rgb(0,0,0); fill-rule: nonzero; opacity: 1;" vector-effect="non-scaling-stroke"  transform=" translate(-2219.74, -1405.41)" d="M 2133 1623 C 2074 1603 2006 1525 1990 1461 C 1954 1310 2084 1157 2236 1173 C 2435 1194 2525 1413 2394 1559 C 2326 1635 2231 1658 2133 1623 z M 2264 1506 C 2308 1488 2330 1455 2330 1407 C 2330 1330 2265 1280 2189 1300 C 2095 1326 2082 1458 2169 1505 C 2202 1523 2223 1523 2264 1506 z" stroke-linecap="round" />
</g>
</g>
</g>
</svg>