<?xml version="1.0" standalone="no"?>
<!DOCTYPE svg PUBLIC "-//W3C//DTD SVG 20010904//EN"
 "http://www.w3.org/TR/2001/REC-SVG-20010904/DTD/svg10.dtd">
<svg version="1.0" xmlns="http://www.w3.org/2000/svg"
 width="294.000000pt" height="244.000000pt" viewBox="0 0 294.000000 244.000000"
 preserveAspectRatio="xMidYMid meet">

<g transform="translate(0.000000,244.000000) scale(0.100000,-0.100000)"
fill="#000000" stroke="none">
<path d="M1367 2160 c-320 -39 -591 -271 -680 -581 -59 -205 -38 -403 64 -599
51 -98 126 -189 213 -256 76 -60 203 -126 279 -145 52 -13 67 -33 67 -88 0
-47 15 -52 166 -49 l138 3 11 59 10 59 70 22 c149 45 297 146 394 268 132 164
203 414 172 607 -33 205 -112 354 -259 491 -172 159 -412 237 -645 209z m266
-76 c95 -21 238 -92 312 -155 126 -109 220 -262 252 -412 23 -110 13 -299 -21
-397 -83 -237 -283 -423 -520 -484 -70 -19 -86 -30 -86 -65 -1 -70 -4 -72
-103 -69 l-91 3 -7 30 c-4 17 -10 42 -13 56 -5 23 -15 28 -73 43 -203 50 -388
198 -483 387 -62 121 -75 181 -74 339 0 135 2 151 31 232 39 111 81 182 162
270 103 111 224 184 366 219 90 23 253 24 348 3z"/>
<path d="M1080 1854 c-81 -35 -122 -99 -122 -189 0 -51 4 -69 27 -104 82 -123
258 -123 340 0 22 34 28 54 28 103 0 67 -15 106 -60 148 -58 55 -143 72 -213
42z m138 -29 c53 -23 79 -51 98 -107 14 -42 14 -57 4 -93 -36 -130 -206 -168
-293 -66 -75 89 -48 214 57 262 50 23 85 24 134 4z"/>
<path d="M1700 1854 c-42 -18 -86 -59 -106 -96 -8 -15 -14 -55 -14 -90 0 -77
26 -126 90 -169 36 -24 53 -29 104 -29 75 0 128 27 170 88 26 37 30 51 30 110
0 57 -4 73 -28 109 -52 78 -163 113 -246 77z m119 -20 c17 -4 49 -23 71 -43
91 -83 71 -219 -39 -276 -44 -22 -131 -17 -168 11 -54 40 -68 70 -68 142 0 81
25 124 89 153 44 20 66 22 115 13z"/>
<path d="M971 1305 c-78 -67 -54 -181 47 -216 42 -14 93 3 127 42 19 24 25 42
25 81 0 45 -4 54 -36 84 -30 29 -43 34 -84 34 -37 0 -55 -6 -79 -25z m130 -44
c37 -37 37 -65 -1 -103 -26 -25 -36 -29 -62 -24 -40 8 -54 20 -63 53 -12 50
26 100 78 102 10 1 32 -12 48 -28z"/>
<path d="M1808 1307 c-34 -29 -48 -58 -48 -100 0 -46 36 -96 83 -115 34 -13
42 -13 82 2 98 38 113 149 29 215 -37 29 -110 29 -146 -2z m135 -48 c38 -46 2
-129 -57 -129 -39 0 -79 41 -79 80 0 71 90 103 136 49z"/>
<path d="M1390 1124 c-81 -35 -122 -99 -122 -189 0 -97 51 -162 155 -195 74
-23 170 19 218 97 28 45 31 141 7 188 -51 96 -165 139 -258 99z m122 -24 c140
-39 168 -224 47 -304 -95 -64 -232 -10 -257 101 -19 85 26 171 103 198 49 17
60 18 107 5z"/>
</g>
</svg>
