<?xml version="1.0" standalone="no"?>
<!DOCTYPE svg PUBLIC "-//W3C//DTD SVG 20010904//EN"
 "http://www.w3.org/TR/2001/REC-SVG-20010904/DTD/svg10.dtd">
<svg version="1.0" xmlns="http://www.w3.org/2000/svg"
 width="264.000000pt" height="210.000000pt" viewBox="0 0 264.000000 210.000000"
 preserveAspectRatio="xMidYMid meet">

<g transform="translate(0.000000,210.000000) scale(0.100000,-0.100000)"
fill="#000000" stroke="none">
<path d="M719 1713 c-87 -93 -146 -195 -191 -328 -20 -61 -23 -89 -23 -225 0
-135 3 -165 23 -230 116 -366 438 -595 816 -578 402 19 714 308 767 713 28
217 -48 461 -193 619 l-60 66 -552 0 -552 0 -35 -37z m1164 -81 c126 -151 192
-369 167 -554 -41 -314 -237 -545 -540 -639 -96 -30 -290 -33 -388 -6 -258 70
-453 258 -534 517 -19 62 -23 97 -23 205 0 81 5 149 14 180 34 121 94 234 167
314 l36 41 527 0 526 0 48 -58z"/>
<path d="M1018 1599 c-32 -24 -52 -78 -43 -118 3 -15 20 -41 36 -57 25 -24 39
-29 79 -29 54 0 84 20 106 71 14 33 6 83 -19 115 -33 43 -114 52 -159 18z
m110 -36 c50 -42 24 -123 -39 -123 -63 0 -90 70 -44 115 28 29 55 32 83 8z"/>
<path d="M1479 1605 c-37 -20 -61 -83 -49 -127 16 -55 53 -83 110 -83 58 0 94
28 111 85 29 95 -81 174 -172 125z m106 -50 c30 -29 32 -64 5 -93 -29 -31 -73
-29 -99 4 -12 15 -21 35 -21 46 0 25 44 68 70 68 12 0 32 -11 45 -25z"/>
<path d="M765 1312 c-185 -87 -126 -352 78 -352 180 0 249 236 97 336 -51 34
-123 40 -175 16z m155 -39 c95 -56 93 -203 -2 -264 -26 -16 -45 -19 -91 -16
-49 3 -62 8 -92 37 -85 82 -58 216 50 255 44 16 96 12 135 -12z"/>
<path d="M1255 1318 c-127 -46 -168 -205 -77 -301 40 -43 75 -57 137 -57 81 0
131 31 169 107 69 137 -82 303 -229 251z m125 -40 c57 -30 82 -65 87 -125 10
-118 -113 -199 -223 -147 -92 44 -111 176 -35 248 51 49 107 56 171 24z"/>
<path d="M1715 1311 c-182 -82 -125 -351 74 -351 61 0 126 31 154 74 104 157
-59 354 -228 277z m163 -43 c90 -55 86 -192 -9 -256 -28 -20 -44 -23 -92 -20
-51 4 -63 9 -94 40 -31 32 -37 44 -41 94 -4 43 0 66 13 90 43 79 141 102 223
52z"/>
<path d="M1005 908 c-32 -17 -76 -61 -91 -90 -18 -35 -18 -131 0 -166 61 -118
223 -135 309 -33 102 122 17 302 -142 301 -31 0 -65 -6 -76 -12z m143 -32 c84
-44 111 -150 58 -231 -31 -47 -105 -71 -168 -54 -105 28 -145 157 -76 244 40
51 129 71 186 41z"/>
<path d="M1448 891 c-77 -49 -109 -150 -72 -224 70 -138 236 -157 323 -36 26
36 31 51 31 101 0 65 -9 88 -49 131 -38 42 -74 57 -134 57 -41 0 -63 -6 -99
-29z m172 -19 c73 -36 101 -129 64 -209 -19 -38 -45 -59 -95 -74 -110 -32
-216 70 -189 184 21 95 131 144 220 99z"/>
</g>
</svg>
